<?xml version="1.0" encoding="UTF-8"?>
<svg id="b" data-name="图层 2" xmlns="http://www.w3.org/2000/svg" viewBox="0 0 332.35 45.74">
  <defs>
    <style>
      .d {
        fill: #fff;
      }
    </style>
  </defs>
  <g id="c" data-name="图层 1">
    <g>
      <path class="d" d="M19.82,37.34c-.19,0-.99,.11-2.4,.34v7.58h-5.66v-6.62c-6.37,1.12-10.1,1.82-11.18,2.11l-.58-6.91c.13-.03,.35-.06,.67-.07,.32-.02,.77-.07,1.34-.17V8.88H.29V2.93H19.44v5.95h-2.02V31.39l2.3-.43,.05,2.4,.05,3.98ZM11.76,12.96v-4.08h-3.6v4.08h3.6Zm0,5.52h-3.6v4.13h3.6v-4.13Zm-3.6,14.3l3.6-.53v-4.13h-3.6v4.66Zm25.73-4.9c.9,2.59,2.17,4.9,3.82,6.94,1.65,2.03,3.58,3.61,5.78,4.73l-3.55,6.1c-1.79-1.06-3.48-2.49-5.06-4.3-1.58-1.81-2.94-3.82-4.06-6.02-1.76,3.81-4.82,7.28-9.17,10.42l-3.98-5.66c2.66-1.63,4.69-3.42,6.1-5.35,1.41-1.94,2.34-4.22,2.78-6.84h-7.39v-6.82h7.78v-4.85h-6.77v-6.72h3.84c-1.09-2.18-2.18-4.21-3.26-6.1L26.06,.34l1.78,3.07c1.44,2.4,2.29,3.84,2.54,4.32l-3.07,1.78h3.5c2.14-3.58,3.76-6.56,4.85-8.93l5.66,2.74-2.06,3.46-1.58,2.74h4.56v6.72h-8.93v4.85h9.94v6.82h-9.36Z"/>
      <path class="d" d="M48.91,43.34l-.96-6.72,15.94-2.69,.38,6.96-15.36,2.45Zm41.28-17.38c-4.9-.96-8.88-2.29-11.95-3.98-3.33,1.7-7.22,3.07-11.66,4.13h22.8v19.39h-6.86v-2.4h-9.98v2.4h-6.72V26.3l-1.15,.24-2.4-6.05c3.97-.61,7.44-1.52,10.42-2.74-1.02-1.02-1.95-2.11-2.78-3.26-.96,1.09-1.95,2.1-2.98,3.02l-2.02-3.46c-2.85,4.8-5.49,8.82-7.92,12.05l6.43-1.1,.1,6.72-12.72,2.11-1.82-6.72c1.7-2.27,3.44-4.74,5.23-7.39l-4.46,.43-1.58-6.34c1.34-1.73,2.78-3.92,4.32-6.58,1.54-2.66,2.69-4.9,3.46-6.72l5.76,2.74c-.99,1.98-2.05,3.9-3.17,5.74-1.12,1.84-2.05,3.27-2.78,4.3l2.83-.19c1.22-1.98,2.13-3.57,2.74-4.75l3.74,1.73c2.27-2.5,4.26-5.82,5.95-9.98l6.96,1.82-1.06,2.26h13.68v6.14c-1.6,2.85-3.63,5.34-6.1,7.49,2.11,.7,4.72,1.3,7.82,1.78l-2.11,6.38Zm-7.68,10.94v-4.51h-9.98v4.51h9.98Zm-8.35-26.59c1.18,1.73,2.59,3.2,4.22,4.42,1.76-1.22,3.38-2.69,4.85-4.42h-9.07Z"/>
      <path class="d" d="M110.78,28.03h-9.6v-9.6h9.6v9.6Z"/>
      <path class="d" d="M139.82,37.34c-.19,0-.99,.11-2.4,.34v7.58h-5.66v-6.62c-6.37,1.12-10.1,1.82-11.18,2.11l-.58-6.91c.13-.03,.35-.06,.67-.07,.32-.02,.77-.07,1.34-.17V8.88h-1.73V2.93h19.15v5.95h-2.02V31.39l2.3-.43,.05,2.4,.05,3.98Zm-8.06-24.38v-4.08h-3.6v4.08h3.6Zm0,5.52h-3.6v4.13h3.6v-4.13Zm-3.6,14.3l3.6-.53v-4.13h-3.6v4.66Zm25.73-4.9c.9,2.59,2.17,4.9,3.82,6.94,1.65,2.03,3.58,3.61,5.78,4.73l-3.55,6.1c-1.79-1.06-3.48-2.49-5.06-4.3-1.58-1.81-2.94-3.82-4.06-6.02-1.76,3.81-4.82,7.28-9.17,10.42l-3.98-5.66c2.66-1.63,4.69-3.42,6.1-5.35,1.41-1.94,2.34-4.22,2.78-6.84h-7.39v-6.82h7.78v-4.85h-6.77v-6.72h3.84c-1.09-2.18-2.18-4.21-3.26-6.1l5.33-3.07,1.78,3.07c1.44,2.4,2.29,3.84,2.54,4.32l-3.07,1.78h3.5c2.14-3.58,3.76-6.56,4.85-8.93l5.66,2.74-2.06,3.46-1.58,2.74h4.56v6.72h-8.93v4.85h9.94v6.82h-9.36Z"/>
      <path class="d" d="M192.43,0c2.02,3.2,4.77,6.14,8.26,8.81,3.49,2.67,7.46,4.94,11.9,6.79l-3.55,6.53c-2.75-1.31-5.23-2.7-7.44-4.18v3.22h-23.47v-2.98c-2.66,1.66-5.15,3.06-7.49,4.18l-3.17-6.77c4.22-1.82,8.16-4.14,11.81-6.96s6.38-5.7,8.21-8.64h4.94Zm-12.1,45.31h-7.2V24.67h33.46v20.74h-7.01v-2.26h-19.25v2.16Zm19.25-8.59v-5.52h-19.25v5.52h19.25Zm-2.69-22.08c-2.69-2.18-4.94-4.38-6.77-6.62-1.73,2.14-4.06,4.35-7.01,6.62h13.78Z"/>
      <path class="d" d="M230.78,28.03h-9.6v-9.6h9.6v9.6Z"/>
      <path class="d" d="M259.82,37.34c-.19,0-.99,.11-2.4,.34v7.58h-5.66v-6.62c-6.37,1.12-10.1,1.82-11.18,2.11l-.58-6.91c.13-.03,.35-.06,.67-.07,.32-.02,.77-.07,1.34-.17V8.88h-1.73V2.93h19.15v5.95h-2.02V31.39l2.3-.43,.05,2.4,.05,3.98Zm-8.06-24.38v-4.08h-3.6v4.08h3.6Zm0,5.52h-3.6v4.13h3.6v-4.13Zm-3.6,14.3l3.6-.53v-4.13h-3.6v4.66Zm25.73-4.9c.9,2.59,2.17,4.9,3.82,6.94,1.65,2.03,3.58,3.61,5.78,4.73l-3.55,6.1c-1.79-1.06-3.48-2.49-5.06-4.3-1.58-1.81-2.94-3.82-4.06-6.02-1.76,3.81-4.82,7.28-9.17,10.42l-3.98-5.66c2.66-1.63,4.69-3.42,6.1-5.35,1.41-1.94,2.33-4.22,2.78-6.84h-7.39v-6.82h7.78v-4.85h-6.77v-6.72h3.84c-1.09-2.18-2.18-4.21-3.26-6.1l5.33-3.07,1.78,3.07c1.44,2.4,2.29,3.84,2.54,4.32l-3.07,1.78h3.5c2.14-3.58,3.76-6.56,4.85-8.93l5.66,2.74-2.06,3.46-1.58,2.74h4.56v6.72h-8.93v4.85h9.94v6.82h-9.36Z"/>
      <path class="d" d="M328.08,27.74v10.13h4.27v6.05h-43.78v-6.05h3.6v-10.13h35.9Zm-21.36-3.6v.86h-16.27V2.21h16.27V23.33c1.09-1.41,1.8-2.83,2.14-4.27,.34-1.44,.5-3.1,.5-4.99V2.35h20.35V20.93c0,1.63-.18,2.86-.55,3.67-.37,.82-.98,1.38-1.85,1.7-.86,.32-2.13,.48-3.79,.48h-6.1l-1.06-4.75h5.14c.58,0,.97-.03,1.18-.1,.21-.06,.34-.19,.41-.38,.06-.19,.1-.54,.1-1.06v-.14h-8.02c-.22,1.22-.58,2.37-1.08,3.46s-1.22,2.29-2.18,3.6l-5.18-3.26Zm-6.19-13.01v-3.7h-3.79v3.7h3.79Zm-3.79,4.75v3.65h3.79v-3.65h-3.79Zm5.52,17.18h-2.69v4.8h2.69v-4.8Zm6.38,4.8h2.93v-4.8h-2.93v4.8Zm14.54-28.56v-1.63h-7.63v1.63h7.63Zm-7.63,6.29h7.63v-1.58h-7.63v1.58Zm2.11,22.27h2.88v-4.8h-2.88v4.8Z"/>
    </g>
  </g>
</svg>