<?xml version="1.0" encoding="UTF-8"?>
<svg id="_图层_2" data-name="图层 2" xmlns="http://www.w3.org/2000/svg" viewBox="0 0 276.02 275.77">
  <defs>
    <style>
      .cls-1 {
        fill: #fff;
      }
    </style>
  </defs>
  <g id="_图层_1-2" data-name="图层 1">
    <polygon class="cls-1" points="47.25 208.24 45.42 211.37 47.25 214.51 50.84 214.51 52.67 211.37 50.84 208.24 47.25 208.24"/>
    <polygon class="cls-1" points="32.6 129.74 22.16 129.38 32.87 126.78 33.28 122.23 14.66 120.52 14.26 124.88 25.07 125.29 13.98 127.85 13.57 132.35 32.2 134.05 32.6 129.74"/>
    <path class="cls-1" d="m62.69,237.39c-.05-.03-.68-.32-.75-.34-.2-.21-.83-.43-1.11-.6-.31-.19-.46-.41-.81-.49-.21-.05-.68-.19-.79-.34-.04-.05-.12-.18-.17-.23-.52-.49-.84.28-.95.75-.08.35-.59,1.47-.16,1.82,1.06.86,1.6.82,2.51.79.13,0,.89-.16,1-.19.56-.17.13-.33.61-.75.16-.14.44-.05.59-.2.05-.05.39.08.03-.22Z"/>
    <polygon class="cls-1" points="32.45 180.5 21.07 180.4 22.78 184.41 29.11 184.26 24.64 188.77 26.42 192.93 34.23 184.66 41.84 181.42 40.06 177.24 32.45 180.5"/>
    <path class="cls-1" d="m33.95,156.35h-3.75s-.51-3.34-.51-3.34l3.57-1.15-.7-4.53-17.85,6.99.8,5.09,19.14,1.4-.69-4.45Zm-15.55.16l8.02-2.41.36,2.36-8.38.04Z"/>
    <path class="cls-1" d="m75,247.44s.01-.06.01-.09c0-.04,0-.07-.02-.11-.03-.13-.07-.26-.15-.37-.18-.26-.35-.52-.55-.78-.12-.15-.26-.28-.39-.4-.03-.02-.07-.05-.1-.09-.03-.02-.05-.05-.08-.07,0,0-.02-.01-.03-.02-.04-.02-.08-.05-.11-.08-.01,0-.02-.02-.03-.02-.06-.05-.12-.1-.17-.15-.22-.1-.45-.21-.66-.33-.04-.02-.08-.04-.11-.06-.07-.04-.14-.08-.21-.11,0,0-.02-.01-.03-.02-.36-.2-.67-.4-.92-.57-.17-.18-.73-.59-.76-.61-.5-.56-.65-.75-1.49-1.36-.1-.09-.21-.17-.31-.24-.03-.02-.06-.04-.09-.06-.38-.22-.85-.2-1.27-.34-.27-.09-.51-.33-.74-.5-.25-.19-.43-.46-.66-.69-.06-.05-.11-.1-.17-.15-.25-.24-.57-.58-.88-.8-.13-.1-.56-.38-.7-.44-.16-.07-.32-.23-.49,0-.19.47-.3.97-.33,1.47,0,.15,0,.31.01.46.07.52.41.99.88,1.22-.01-.02-.02-.03-.03-.05,0,0,0,0,.01,0l.06.08s0-.02.02-.02c.69.41,2.18.16,2.72.88.06.07.11.14.17.21.35.42.73.86,1.18,1.18.03.01.05.03.08.04.05,0,.1,0,.16,0,.22.05.47-.01.68.01.06-.02.11-.04.18-.05.18-.04.36-.06.54-.09.11-.01.22-.03.33-.02.14,0,.32.02.46.06.08.02.16.07.23.11.02.02.15.15.16.15.14.17.24.36.31.57.08.25.07.54.17.78.02.05.04.11.05.17-.13-.05-.27-.09-.35-.22-.09-.11-.24-.34-.4-.2-.15.13.25.87.28,1.05.01.02.03.05.04.07.14.19.16.43.18.66.06.26.17.52.34.73.27.32.25.77.49,1.11.1.18.3.24.47.33.29.17.64-.04.97.05.21-.1.35-.25.45-.45.14-.16.27-.33.34-.53.01-.04.03-.08.04-.11.02-.04.04-.07.06-.11.04-.07.06-.14.07-.21.01-.08.02-.17.04-.26.02-.08.11-.14.09-.23,0-.03-.02-.05-.02-.08,0-.04.03-.08.03-.12,0-.06-.04-.12-.05-.18Z"/>
    <path class="cls-1" d="m197.75,238.76c-.24-.83-.93-1.31-1.42-1.72-.14-.12-.26-.28-.38-.34-.53-.28-1.14-.2-1.71.13-.34.19-.67.73-.62,1.09.06.44.69,1.03.95,1.55.18.37.21.78.31,1.2.09.37.16.84.36,1.09.14.18.38.19.6.37.13.11.25.32.36.39.32.21,1.2.11,1.51-.31.26-.34.03-.87.02-1.33,0-.35.11-.69.13-1.03.02-.33,0-.72-.1-1.09Z"/>
    <path class="cls-1" d="m173.51,256.26c-.11-.21-.37-.27-.53-.46-.63-.48-1.04-1.16-1.88-1.47-.59-.22-1.21-.08-1.81-.05-.67.04-1.31-.15-1.98-.21-.69-.06-1.49-.15-2.19-.05-.6.09-1.1-.05-1.71-.04-.39,0-.78.13-1.17.14-.3,0-1.09-.09-1.25-.41-.11-.24.12-.84.2-1.08.06-.18.1-.42.17-.59.07-.2.26-.38.34-.6.22-.67.39-1.41.68-2,.08-.16.09-.32.16-.47.12-.24,0-.2.15-.32.2-.16.77-.31,1.09-.43.04-.02,1.77-.55,2.34-.77.2-.07.44-.11.64-.19.1-.05.31-.11.41-.14.51-.17,1.27-.31,1.27-.52.02-.28.27-.66.2-1.02-.06-.28-.31-.39-.58-.52-.09.03-2.01.33-2.49-.26-.1-.12-.54-.39-.74-.34-.03,0-.06.03-.08.04-.04.07-.09.14-.18.18-.2.28-.32.74-.5.9-.11.1-.58.32-.69.03-.03-.07.32-.76.41-.92,0,0,0,0,0-.01.05-.21.1-.45.2-.66,0-.06,0-.12.03-.18,0-.12.05-.24.13-.32.02-.02.04-.04.06-.06.02-.11.04-.22.06-.33,0,.04-1.04-1.02-1.1-1.06-.28-.19-.63-.24-.97-.28-.56-.07-1.62-.47-1.85.25-.15.46.11,1.04.19,1.49.06.36-.12.75-.18,1.11-.04.24.02.5-.03.73-.04.18-.16.36-.23.53-.16.41-.35.82-.5,1.23,0,.02-.02.04-.03.06-.02.05-.04.08-.05.09-.03.09-.09.17-.18.24-.05.05-.11.09-.18.11-.15.08-.31.14-.47.19-.08.08-.17.12-.28.12-.1.04-.21.08-.31.11-.02,0-.05.01-.07.01,0,0-.01,0-.02.01-.07.04-.15.06-.22.05-.02.02-.05.05-.08.07-.08.05-.17.09-.25.13-.04.03-.09.06-.15.07-1.16.27-2.31.74-3.45,1.11-.11.04-.22.07-.31.15-.19.16-.22.46-.16.7.02.1.07.2.12.29.03-.01.06,0,.08.02.1.16.2.31.28.46.31.32.7.59,1.01.76.24.13.6-.12.84-.26.47-.27.91-.49,1.4-.7.32-.14.64-.29.94-.48.23-.14.53-.47.83-.37.29.09.09.44.07.63,0,.08-.12.2-.15.28-.19.51-.36,1.04-.57,1.62-.21.61-.39,1.19-.52,1.96-.06.34-.25.66-.35.98-.29.94-.56,1.57-.95,2.34-.15.31-.15.79-.59.83-.25-.16-.12-.49-.3-.65-.16-.03-.23,0-.41.14-.63.44-1.21,1.36-1.21,1.36,0,0,.23,1.95.81,2.96.45-.04.75.07,1.22.05.21-.06.34-.27.42-.33.36-.28.77-.42,1.09-.76.25-.27.45-.59.63-.9.21-.36.42-.72.7-1.02.32-.35.45-.83.64-1.26.18-.4.36-.79.54-1.19.11-.25.25-.77.5-.92.02-.07.11-.17.18-.16.51.09,1.02.2,1.54.27.24,0,.49,0,.73.02.21.02.43.04.65.06.03-.03.07-.05.1-.04.39.13.79.02,1.19.04.13,0,.26.02.39.03.12,0,.23,0,.34.04.13-.04.27-.05.43,0,.52-.05.92-.02,1.31.19.5.25.21.47,0,.83-.7.69-1.28,1.46-2.16,2.05.02.07.03.13.05.19.07.17,1.21.05,1.6.03.41-.03,1.63-.38,1.86-.46.23-.09.41-.1.65-.16.37-.1,1.98-.56,2.51-.62.57-.06,1.15-.2,1.46-.39.21-.13.71-.82.32-1.5-.05-.14-.08-.22-.16-.37Z"/>
    <path class="cls-1" d="m118.18,257.14c-.15-.18-1.19-.63-1.35-.79-.35-.23-.56-.32-.74-.41-.14-.06-.27-.12-.44-.23-.02-.02-.06-.03-.09-.03l-.14-.04c-.06-.02-.14-.05-.21-.1-.38-.27-.44-1.1-.4-1.37.04-.24.18-.47.33-.71.13-.22.27-.44.34-.66.01-.06.06-.16.15-.36.08-.19.21-.47.24-.58.1-.35-.04-.63-.19-.93-.07-.14-.14-.28-.19-.43-.08-.26-.2-.48-.33-.73-.08-.16-.18-.33-.26-.52-.14-.32-.2-.65-.25-.94-.03-.2-.06-.38-.12-.54,0,.02-.01,0-.02-.02-.03-.04-.07-.09-.1-.16-.18-.45-.38-.73-.79-1.09-.09-.09-.21-.16-.32-.2-.03,0-.07,0-.16.03-.09.03-.21.08-.36.09-.69.07-1.33.93-1.81,1.56-.17.24-.54,1.98-.71,2.81-.06.28-.11.53-.15.72-.04.15-.1.3-.15.44-.06.15-.12.28-.14.41-.07.45-.15.56-.36.81-.04.04-.08.09-.13.15-.05.06-.07.11-.09.15-.05.1-.11.24-.34.32-.19.07-.39.06-.62,0-.19-.06-.37-.15-.54-.25l-.25-.13-.04-.1c-.12-.3-.18-1.18-.19-2.93v-.15c-.01-.54-.29-1.1-.75-1.35-.33-.18-.95-.46-1.31-.23-.19.12-.32.31-.44.5-.24.36-.48.73-.64,1.14-.44,1.12-.88,1.57-1.77,2.36-.15.13-.23.16-.38.17-.03,0-.07,0-.12.01-.14.03-.24.14-.3.23-.13.21-.17.5-.09.78.03.13.07.24.11.36.06.19.12.38.17.63.1.48.32.82.61,1.24.14.21.29.44.45.71.12.21.28.35.46.51.08.07.15.13.23.21.11.1.18.21.24.3.05.07.1.15.14.16.04.01.09.04.15.06.18.08.37.15.53.12.13-.03.22-.08.33-.16.02-.02.07-.11.11-.18.06-.12.15-.28.26-.42.03-.03.08-.1.14-.18.32-.43.5-.64.61-.72.22-.16.43-.17.63-.17h.08c.2-.02.41-.02.63,0,.59.04,1.28.14,1.93.3.5.12,1.64.36,1.72.38.28.04.64.18.96.31.24.1.47.19.7.25.25.05.89.28,1.04.35l.09.04c.31.14,1.26.56,2.16.83.79.24,1.69.42,1.88.39.05-.03.15-.24.2-.36.03-.07.06-.14.1-.21.11-.39.46-.77.3-1.2-.07-.08-.14-.17-.22-.26Z"/>
    <path class="cls-1" d="m123.7,255.07c-.03-.1-.05-.19-.08-.28-.06-.2-.13-.41-.16-.77-.04-.56-.17-.67-.96-1.35l-.15-.12c-.08-.07-.16-.17-.24-.25-.09-.11-.18-.21-.26-.27-.05-.03-.1-.06-.15-.08-.26-.08-.58.11-.84.49-.18.26-.2.53-.24.97-.01.15-.03.32-.05.5,0,.09-.02.19-.03.28-.01.11-.03.22-.04.33-.02.26-.17.65-.43,1.15-.1.19-.18.34-.26.57-.05.15-.33.6-.85,1.43-.13.2-.22.36-.24.39-.19.35-.2,1.08-.06,1.27.13.18,1.44,1.47,1.97,1.63.03,0,.04.01.04.01.35,0,.63-.1.87-.34l.06-.06c.17-.16.35-.33.46-.51.15-.23.33-.38.49-.52.25-.21.44-.38.53-.8.12-.62.45-1.8.56-2.14.07-.21.18-.57.19-.68.03-.25,0-.38-.09-.71l-.04-.16Z"/>
    <path class="cls-1" d="m84.29,223.48c-.57-.47-1.16-.29-1.78-.48-.21.09-.4.36-.59.54-.05.74.19.82-.19,1.56-.28.55-.92.62-1.29,1.07-1.04-.33-2.28-.9-3.29-1.9.02-.43.55-.91.51-1.33-.23-.31-.27-.53-.51-.95-.32-.56-.69-.37-1.01-.11-.52.41.23,1.63-.69,1.85-.54.13-.82.11-1.39-.14-.58-.25-1.1-.53-1.76-.47-.49.04-.87.89-.9,1.29.05.11.14.21.23.31.01.27,1.44.53,1.3.76-.23.36-.93,1.3-.89,1.45-.1.38-.24.77-.13,1.13-.03.04.02.25-.02.32-.04.09-.09.19-.14.28.04.66.18,1.06.67,1.4-.17.82-.7,1.69-1.71,1.36-.97-.32-1.57,1.47-2.45,1.22-.04-.73.65-1.45,1.38-1.47.82-.01,1.1-.16,1.25-.91.11-.52-.66-1.22-.12-1.48.06-.03.65-.7.44-1.41-.12-.41-.22-.93-.56-1.23.04,0-.5-.6-.57-.82-.44-.17-1.78-.04-2.02.04-.11.77.06.99-.03,1.85-.05.46-.04.95-.54,1.37-.43-.22-.91-.15-1.37-.23-.39-.07-.71-.3-1.1-.37-.75-.14-1.19-.81-1.85-.51-.11.05-.41,1.02-.16,1.35.24.33.12.37.36.74.31.49.62.77,1.24.95.41.12.86.18,1.23.4-.5.68-1.34,1.16-2.09,1.52-.66.31-1.79-.2-2.14.38-.16.27-.26.55-.31.86.03.25.04.5.03.74,0,.05-.07.35-.02.43.24.48,1.11.46,1.23.49.13.03.51.08.54.08.39-.07,1.79-.44,1.94-.51.47-.21,1.03-.49,1.45-.28.47.24-.25,1.08.2,1.46.4.34,1.55-.07,1.6-.08.39-.09.77-.53.77-.94.39-.5,1.05-.86,1.66-.88.58-.03,2.06-.09,2.43.47-.21.18-.56.22-.82.45-.36-.05-.13-.49-.4-.51-.47-.02-.69.51-1.21.67-.48.15-.81.29-1.41.58-.34.16-.64.34-.91.71.17.49.63.96.45,1.48.3.83,1.57,1.32,1.99.3.03-.11.31-.57.37-.64.4-.22.67-.95,1.09-.77-.07.06-.05.77.16.99.4.42.05.75-.36,1.02-.95.63-1.29.69-1.26,1.96-.46.44-2.14-.55-2.25.02.54.27,1.08.54,1.65.75.12.03.24.06.34.11.68.33,1.27.45,1.96.7.25.32.76.23,1.07.53.26.25.56.39.87.57.44.25.95.46,1.41.64.08.05,2.19-1.01,1.73-1.91-.52-1.62-2.38-1.16-3.49-2.12-.29-.87,1.28-1.4,1.85-1.09.76.11,1.5-.45,2.24-.07.5.26.97.33,1.5.37.24.02.73-.24.77-.24.13-.02.3-.13.37-.15.74-.28.46-1.93.22-2.63-.34-.95-.25-1.21.65-1.76.18-.41,0-.78.18-1.18-.38-.67-.4-.99-1.25-1.29-.24.11-.49.14-.74.24-.15.24-.05.56-.2.8-.17.28-.48.46-.69.7-.44.51-.98.82-1.43,1.34-.65.76-2.42,2.14-3.69,1.71-.21-.07-.54-.01-.74-.28.63-.46,1.08-.57,1.76-.54.08.05.28.15.37.16.74.04,1.6-.16,1.92-1,.24-.63.17-1.26,0-1.91-.04-.15-.21-.26-.36-.3-.62-.13-1.4.02-2.09-.32.41-.29.8-.27,1.29-.21.64.08,1.63.08,1.67-.84.04-.97-.44-1.24-1.09-1.65.13-.74,2.5-.51,3.14-.63.49-.09.94.14,1.39.4.54.31,1,.74,1.55,1.04.14.02.56-.17.7-.15.7-.41.62-1.58.64-1.76,0-.16.07-.31.06-.42-.38-.64-.89-.39-.83-.87,0-.06,1.36-.38,1.55-.99.12-.38.06-.81-.05-1.19.05-.68.12-1.46-.46-1.95Zm-4.99,12.78c.04.09.09.08.15.03.08.2-.02.41-.15.63-.13-.03-.26-.09-.39-.11.01-.2.25-.33.39-.56Zm-3.15-7.61c-.49.32-1.14.31-1.7.61.22-.43,1.12-1.23,1.37-1.42.61-.47.6-.33.95.17.08.11.1.19.16.28-.22.12-.7.31-.78.36Z"/>
    <polygon class="cls-1" points="213.78 40.31 210.06 37.68 200.73 46.8 206.35 35.05 202.67 32.44 195.23 50.1 199.6 53.17 213.78 40.31"/>
    <polygon class="cls-1" points="187.03 24.4 182.85 22.64 175.62 39.88 179.79 41.63 187.03 24.4"/>
    <path class="cls-1" d="m214.37,236.26c-.21-.14-.78-.37-.87-.49-.54-.21-1.06.41-1.72.78-.64.35-1.29.7-1.74,1.14-.27-.04-.55-.16-.85-.16-.35,0-1.27.03-1.46-.21-.09-.11-.16-.71-.17-1.04,0-.28,0-.64.08-.87.2-.61.34-.97.8-1.39,0-.55-.62-.86-1.04-.96.07-.05.16-.08.22-.15.91-1.07,1.83-2.4,2.38-3.74.25-.63.5-1.05.77-1.64.03-.07.14-.33.13-.4.03-.44-.23-.53-.52-.88-.21-.26-.71,0-1.11.02-.64.02-1.41-.01-2.05.23-.43.17-.55.69-.88,1.1-.2.25-.68.78-.93.51-.1-.11,0-.18-.02-.33-.04-.2-.16-.44-.22-.66-.06-.23-.08-.46-.15-.67-.22-.73-.75-1.32-.92-2.05.1-.46-.07-1.03-.17-1.51-.04-.23.04-.59-.11-.78-.18-.25-.48-.19-.71-.25-.5-.15-1.01-.5-1.43-.46-.3.03-.5.05-.76.09-.9.39-1.63,1.17-1.95,2.09-.14.43-.08.78-.19,1.18-.13.48.55.57.85.55.29-.1.78-.29,1.18-.6.18-.28.24-.52.23-.81-.02-.36-.09-.59.14-.83.11-.03.2.02.31.06.22.83.8,1.45,1.21,2.24-.44-.21-.94-.39-1.39-.23-.31.12-.41.51-.6.72-.22.23-.56-.19-.9-.24-.1-.02-.06.04-.1.02-.31.17-.59.14-.91.31-.43-.02-.5-.67-.68-1.01-.18-.33-.11-.33-.16-.58-.06-.3-.19-.37-.07-.62.21-.42.81-.97,1.07-1.5.05-.1.05-.22.1-.3.26-.38.79-.57.74-1.01-.25-.15-.44-.33-.76-.38-.39-.06-.71-.04-1.01.1-.44.21-.83.72-1.24,1.08-.16.05-.26-.17-.4-.19-.72-.1-1.64-.36-2.18.16-.31.3-.22,1,.13,1.34.23.22.66.17.92.5.17.23.17.6.35.92.12.22.37.37.53.61.43.63.79,1.29.86,1.78-.24.32,0,.55.32.75.36-.03.63.41,1.01.29.28-.6,1.12-.41,1.44-.09.42.42.38,1.3.71,1.96.16.33.25.55.28.82.03.31.15.45.24.7.05.14.14.25.03.4-.23-.32-.47-.65-.67-1-.06-.12-.14-.19-.18-.32-.14-.4-.33-.76-.56-1.17,0-.3.2-.8-.17-.93-.14-.05-.28-.1-.46-.11-.06,0-.13.07-.22.07-.2.02-.34-.13-.45-.09-.27.11-.45.45-.44.73.02.28.23.72.44.93.19.19.35.41.54.61.07.09.18.1.24.18.08.12.09.29.15.4.22.41.57.78.62,1.21.1.17.27.23.14.37-1.28-.97-2.3-2.78-3.29-4.27-.03-.11.01-.2-.06-.32-.37-.49-1.18-1.16-1.85-1.06-.41.06-.62.46-.62.8,0,.3.16.48.34.74.13.36,0,1.03.36,1.04.16,0,.3-.25.4-.2.27.59.71,1.04,1.11,1.46.37.4.64.87.97,1.27.52.63,1.27,1.05,1.68,1.84-.13.2-.23.41-.46.58-.29-.29-.46-.66-.71-.95-.13-.14-.23-.24-.34-.37-.07-.08-.14-.17-.21-.26-.14-.17-.34-.27-.5-.39-.21-.18-.34-.39-.53-.65-.07-.11-.2-.19-.29-.31-.09-.14-.19-.25-.29-.4-.26-.36-.64-.6-.66-1-.27-.22-1.1-.25-1.62-.11-.09.02-.19.11-.3.24-.14.16.03.32.01.53-.01.17-.15.27-.11.42.08.26.23.32.41.56.03.05.19.27.22.32.09.14.32.33.39.44.08.11.14.15.2.21.11.09.31.1.49.21.39.24.67.38.87.61.9.97,1.36,1.24,1.91,2.08-.35.44-1.11,1.08-.63,1.4.1.07.23.08.35.11.29-.12.55-.1.82-.1.46,0,.81.07,1.18-.22.31-.23.38-.83.63-1.1.07-.07.45-.5.59-.67.08-.1.56-.81.71-1.02.25-.36,1.47-1.14,1.6-1.24.18-.13.34-.39.53-.59.26-.26.51-.54.81-.7.6-.32,1.93-1.51,2.8-1.86.62.05.27.66.11.97-.2.43-.42.83-.55,1.19-.1.26-.22.59-.4.89-.06.08-.18.14-.26.25-.09.13-.08.26-.18.36-.1.09-.27.15-.4.27-.35.31-.6.64-.97.82-.3.15-.62.51-.8.8-.37.61-.84,1.15-.98,2.01-.11.7-.49.8-.46,1.51.13.47.64.57.81.86.39.17.48-.18.7-.56.16-.27.29-.63.38-.87.13-.35.18-.52.38-.88.16-.28.64-.99,1.07-.64.14.53.46,1.09.41,1.58-.18.21-.39.45-.28.66.12.25.52.24.77.4.11.07.16.18.28.24.18.1.52.04.63.31.09.22-.27.63-.43.84-.24.29-.48.6-.71.95-.11.17-.3.29-.39.46-.05.1-.03.22-.08.33-.11.2-.35.31-.33.53,0,.15.2.59.28.7.53.78.32,1.72,1.18,2.03.25.09.42-.02.68-.01.21,0,.35.08.51.06.09,0,.58-.08.74-.11.13-.03.53-.04.63-.04.35.01,1.35-1.31,1.35-1.38.41-.85.92-1.58,1.07-2.58.05-.04-.16-1.19-.2-1.72-.03-.36.15-.41.46-.58.5-.27,1-.78,1.44-.97.09-.04.32-.16.45-.2.31-.08.51-.09.71-.09.2,0,.35.15.52.08.38-.16.46-.53.5-.8.09-.68-.87-.73-1.2-.97Zm-11.46-10.45c.04.37.32.66.23,1.08-.03.02-.07.04-.11.07-.09-.08-.2-.09-.27-.24.23-.27-.05-.64.15-.91Zm-.5,4.52c-.67-.75-.96-1.71-1.1-2.72-.04-.27.02-.91.37-.69.49.29.28.93.27,1.37.1.36.44.63.79.82.3-.22.54-.16.8-.2.1.11.2.18.29.31-.52.41-.88.85-1.41,1.11Zm6.61,12.78c-.12.25-.45.73-.78.91-.2.12-.73.14-1,.13-.34-.01-.52-.28-.74-.7.16-.2.15-.62.38-.92.11-.14.32-.25.45-.42.09-.1.14-.26.23-.34.13-.13.35-.21.53-.36.16-.14.27-.36.41-.43.19-.09.53.03.63.19.06.11,0,.17,0,.34.03.58.14,1.03-.12,1.59Z"/>
    <path class="cls-1" d="m21.92,104.19c.08.04.17.08.25.11.08.04.18.08.27.11.02,0,.03,0,.05.03.01.01.02.03.04.04.03,0,.06.01.08.03,0,.02.03.04.05.04,1.39.46,2.61.49,3.67.06,1.04-.43,2.01-.97,2.83-1.62.3-.21.56-.41.82-.63.25-.2.5-.41.76-.59.52-.4,1.02-.71,1.51-.93.49-.21,1-.23,1.5-.06.5.17.85.44,1.04.79.22.35.3.71.26,1.04,0,.04,0,.08,0,.14-.02.03-.04.08-.05.11,0,0,0,.04,0,.04l-.02.03c-.15.39-.48.67-1,.84-.51.19-1.16.14-1.98-.13-.04-.02-.11-.05-.16-.07-.08-.03-.14-.08-.2-.13-.04,0-.07-.02-.13-.03-.03-.02-.07-.05-.11-.07-.03-.01-.07-.04-.11-.04-.02-.02-.07-.03-.11-.03l-1.33,3.88c.06.02.12.03.19.06.07.02.14.06.17.09.04.01.08.02.11.03.04,0,.07.03.12.04.08.02.17.07.25.1.08.04.17.07.26.1,1.68.58,3.12.62,4.32.15,1.19-.5,2.1-1.48,2.7-2.94l.16-.57c.51-1.49.58-2.92.2-4.31-.38-1.4-1.62-2.44-3.72-3.16l-.45-.15c-1.41-.43-2.59-.43-3.58,0-.98.41-1.86.96-2.62,1.62-.22.19-.45.4-.67.59-.21.18-.42.36-.63.53-.52.44-1.02.79-1.51,1.04-.48.26-1.01.29-1.56.1-.38-.12-.65-.36-.8-.69-.15-.34-.19-.67-.11-.97.01-.02.02-.05.02-.05,0,0,0-.02.01-.04.02-.05.04-.1.06-.16.03-.05.07-.11.1-.17.18-.27.5-.47.93-.59.42-.15.93-.1,1.56.11l.5.18,1.33-3.88-.38-.12c-1.87-.66-3.43-.58-4.67.21-1.24.78-2.11,1.91-2.61,3.34-.49,1.43-.46,2.76.09,3.97.55,1.22,1.31,2.09,2.3,2.59Z"/>
    <polygon class="cls-1" points="84.62 46.78 79.04 37.97 87.21 45.33 91.22 43.11 82.11 26.77 78.29 28.9 84.06 38.06 75.68 30.34 71.74 32.54 80.84 48.88 84.62 46.78"/>
    <polygon class="cls-1" points="155.8 23.71 157.42 34.6 161.94 35.44 165.32 17.05 161 16.25 159.62 26.99 158.07 15.71 153.63 14.9 150.24 33.29 154.49 34.07 155.8 23.71"/>
    <polygon class="cls-1" points="47.88 82.54 41.4 78.38 43.01 75.88 49.49 80.04 51.96 76.18 36.23 66.08 33.75 69.93 39.73 73.78 38.12 76.28 32.15 72.43 29.7 76.24 45.44 86.36 47.88 82.54"/>
    <path class="cls-1" d="m125.9,32.31c1.12.74,2.73,1.05,4.82.93,1.75-.12,3.11-.62,4.1-1.49.98-.89,1.39-2.46,1.25-4.7l-.83-13.2-4.57.28.88,13.99c.03.54-.09.98-.35,1.27-.25.31-.56.51-.89.55-.02.05-.04.05-.08.05-.05,0-.08,0-.11.02h-.05s-.01,0-.04,0c-.34,0-.66-.14-.94-.4-.31-.27-.46-.63-.5-1.13l-.89-14.17-4.52.28.86,13.78c.12,1.85.74,3.15,1.85,3.92Z"/>
    <path class="cls-1" d="m63.44,62.97l-2.11-3.11,2.45-2.31,2.96,2.3,3.34-3.14-15.86-10.76-3.75,3.51,9.68,16.58,3.28-3.07Zm-8.93-12.74l6.5,5.25-1.73,1.65-4.77-6.9Z"/>
    <path class="cls-1" d="m151.15,200.3c0-1.59-.54-2.91-1.61-3.95-1.08-1.04-2.66-1.56-4.76-1.56-1.07,0-1.99.17-2.76.51-.77.34-1.39.84-1.87,1.5s-.78,1.33-.9,2.02c-.12.68-.18,1.62-.18,2.8v.77h4.73v-2.01c0-.93.1-1.55.29-1.87.2-.31.5-.47.9-.47s.7.14.9.42c.2.28.29.71.29,1.29,0,.75-.32,1.79-.97,3.13s-2.69,4.82-6.13,10.44v3.02s11.61,0,11.61,0v-3.6h-5.78c2.96-4.38,4.74-7.24,5.35-8.59s.91-2.63.91-3.84Z"/>
    <path class="cls-1" d="m234.21,137.83l.8-.02h-.77l.77-.02c-.08-22.68-8.11-44.8-22.59-62.28-14.25-17.21-34.36-29.01-56.64-33.23-5.81-1.1-11.78-1.67-17.77-1.67-16.96,0-33.72,4.44-48.47,12.83-19.1,10.83-34.14,28.33-42.36,49.21-8.34,21.17-8.69,45.87-.96,67.76,7.32,20.72,21.87,38.64,40.99,50.42,15.01,9.24,32.56,14.13,50.74,14.13,5.03,0,10.1-.38,15.07-1.13,22-3.35,42.47-14.58,57.64-31.67,15.6-17.56,24.26-40.4,24.35-64.3l-.8-.03Zm-96.21,92.8c-51.22,0-92.75-41.53-92.75-92.75s41.53-92.75,92.75-92.75,92.75,41.53,92.75,92.75-41.53,92.75-92.75,92.75Z"/>
    <polygon class="cls-1" points="139.1 121.48 139.1 182.6 192.03 152.04 192.03 90.93 139.1 121.48"/>
    <path class="cls-1" d="m165.56,200.3c0-1.59-.54-2.91-1.61-3.95-1.08-1.04-2.66-1.56-4.76-1.56-1.07,0-1.99.17-2.76.51-.77.34-1.39.84-1.87,1.5s-.78,1.33-.9,2.02c-.12.68-.18,1.62-.18,2.8v.77h4.73v-2.01c0-.93.1-1.55.29-1.87.2-.31.5-.47.9-.47s.7.14.9.42c.2.28.29.71.29,1.29,0,.75-.32,1.79-.97,3.13s-2.69,4.82-6.13,10.44v3.02s11.61,0,11.61,0v-3.6h-5.78c2.96-4.38,4.74-7.24,5.35-8.59s.91-2.63.91-3.84Z"/>
    <polygon class="cls-1" points="255.73 156.14 240.97 153.54 240.18 158.04 254.95 160.65 254.37 163.9 258.02 164.55 260 153.32 256.35 152.68 255.73 156.14"/>
    <polygon class="cls-1" points="234.33 177.5 232.49 181.66 240.06 185.02 247.73 193.39 249.51 189.42 245.09 184.87 251.43 185.09 253.27 180.96 241.91 180.85 234.33 177.5"/>
    <path class="cls-1" d="m214.81,23.19C176.32-2.85,126.09-7.04,83.49,11.04,41.97,28.66,11.19,67.14,2.53,111.31c-8.89,45.39,6.07,92.98,39.05,125.31,33.06,32.42,81.22,45.81,126.33,36,44.24-9.6,81.24-41.66,98.23-83.39,6.61-16.27,9.84-33.85,9.89-51.37-.12-45.84-23.25-89.02-61.2-114.67Zm55.87,114.67c-.11,45.79-24.14,88.82-63.06,112.98-39.37,24.43-90.13,26.05-131.15,4.63C36.21,234.44,9.07,193.07,5.66,147.8,2.21,102.01,23.35,56.89,60.59,30.06,98.13,3.02,148.62-2.34,191.04,16.18c41.6,18.14,71.34,57.24,78.23,102,.99,6.51,1.4,13.09,1.42,19.67Z"/>
    <polygon class="cls-1" points="212.98 64.79 219.79 72.65 222.6 70.22 218.71 65.76 221.72 63.13 225.35 67.31 228.3 64.75 224.68 60.57 227.39 58.22 231.27 62.7 233.93 60.39 227.09 52.52 212.98 64.79"/>
    <path class="cls-1" d="m246.59,109.52c-.1.31-.21.62-.33.92-.22.62-.48,1.15-.76,1.59-.31.46-.71.75-1.24.87-.5.13-.95.1-1.31-.1-.37-.2-.63-.45-.78-.75-.01-.03-.04-.07-.05-.12-.01-.04-.01-.09-.03-.13v-.04s0-.05,0-.05c-.09-.39.05-.81.38-1.24.34-.43.91-.74,1.73-.94.07,0,.12-.02.2-.03.08-.01.15-.01.24-.01.03,0,.07-.01.11-.02.05-.02.09-.02.13,0,.03,0,.08,0,.12-.03.04,0,.07-.01.1-.01l-.97-3.99c-.05,0-.12.03-.18.04-.08.02-.14.03-.2.02-.04,0-.07.02-.11.04-.04,0-.08,0-.12.01-.09.03-.19.04-.26.05-.11.03-.19.04-.29.06-1.73.42-2.96,1.14-3.71,2.21-.74,1.05-.97,2.37-.69,3.94l.17.56c.36,1.53,1.09,2.78,2.16,3.74,1.07.97,2.68,1.2,4.83.68l.46-.12c1.4-.4,2.41-1.04,3.01-1.93.61-.88,1.06-1.79,1.35-2.76.08-.3.16-.57.24-.85.08-.29.16-.54.25-.81.2-.63.43-1.19.71-1.68.28-.47.7-.78,1.27-.91.37-.11.73-.04,1.04.16.32.2.53.45.63.75,0,.03.02.05.02.05,0,0,0,.01,0,.04.01.05.02.11.02.15,0,.07.01.13.01.21-.01.34-.17.67-.46,1.01-.27.34-.74.57-1.38.73l-.51.13.96,3.99.38-.09c1.93-.49,3.19-1.38,3.83-2.72.62-1.33.76-2.73.39-4.2-.35-1.48-1.08-2.58-2.19-3.31-1.12-.73-2.22-1.06-3.34-.96-.09.01-.18.03-.28.04-.1,0-.19.02-.26.05h-.13s-.08.01-.08,0h-.06c-1.43.35-2.45.98-3.12,1.92-.66.92-1.17,1.88-1.53,2.91-.13.31-.25.62-.35.94Z"/>
    <polygon class="cls-1" points="242.16 136.44 260.86 135.88 260.73 131.35 242.02 131.92 242.16 136.44"/>
    <path class="cls-1" d="m229.73,88.01l6.49-3.34.48.91c.3.61.37,1.08.22,1.43-.15.35-.5.67-1.06.97l-3.47,1.79c-.61.31-.96.59-1.04.81-.08.24.01.6.28,1.13l1.82,3.54.53-.27c-.08-.16-.06-.38.09-.64.13-.26.51-.56,1.11-.87l3.96-2.26c.52-.26.89-.68,1.06-1.2.17-.52.18-1.15.02-1.85.75.6,1.56.88,2.43.85.87-.03,1.83-.33,2.9-.87,1.43-.86,2.26-1.87,2.47-3.06.22-1.18-.03-2.46-.75-3.84l-3-5.82-16.63,8.59,2.07,4.01Zm13.86-7.15c.32.63.51,1.2.57,1.71.06.49-.35,1.09-1.22,1.75l-.48.25c-.71.37-1.31.46-1.8.3-.48-.14-.83-.42-1.03-.81l-.46-.93,4.41-2.27Z"/>
    <polygon class="cls-1" points="224.17 208.24 222.35 211.37 224.17 214.51 227.79 214.51 229.59 211.37 227.79 208.24 224.17 208.24"/>
    <path class="cls-1" d="m135.85,196.88c-.45-.58-1.13-1.08-2.05-1.48-.91-.4-1.95-.61-3.1-.61-1.42,0-2.62.29-3.62.87s-1.66,1.36-1.99,2.32c-.33.96-.5,2.42-.5,4.35v7.37c0,1.49.1,2.57.31,3.25.21.68.56,1.33,1.06,1.95s1.16,1.07,1.99,1.36c.83.29,1.88.44,3.14.44.96,0,1.82-.14,2.59-.42s1.43-.73,1.98-1.37c.55-.63.91-1.32,1.08-2.05s.26-1.89.26-3.49v-7.04c0-1.6-.08-2.76-.24-3.49-.16-.73-.47-1.39-.92-1.97Zm-4.11,14.14c0,1.03-.06,1.7-.18,1.99-.12.3-.38.44-.77.44s-.65-.13-.76-.38c-.12-.25-.18-.99-.18-2.22v-10.3c0-1.09.06-1.78.19-2.08.13-.3.38-.45.78-.45s.65.14.76.42c.11.28.16.98.16,2.11v10.45Z"/>
    <polygon class="cls-1" points="137.84 58.45 84.91 89.01 137.84 119.56 190.76 89.01 137.84 58.45"/>
    <polygon class="cls-1" points="136.57 121.48 83.65 90.93 83.65 152.04 136.57 182.6 136.57 121.48"/>
    <path class="cls-1" d="m121.98,200.3c0-1.59-.54-2.91-1.61-3.95-1.08-1.04-2.66-1.56-4.76-1.56-1.07,0-1.99.17-2.76.51-.77.34-1.39.84-1.87,1.5-.48.66-.78,1.33-.9,2.02-.12.68-.18,1.62-.18,2.8v.77h4.73v-2.01c0-.93.1-1.55.29-1.87.2-.31.5-.47.9-.47s.7.14.9.42c.2.28.29.71.29,1.29,0,.75-.32,1.79-.97,3.13s-2.69,4.82-6.13,10.44v3.02s11.61,0,11.61,0v-3.6h-5.78c2.96-4.38,4.74-7.24,5.35-8.59.61-1.35.91-2.63.91-3.84Z"/>
  </g>
</svg>