<?xml version="1.0" encoding="UTF-8"?>
<svg id="_图层_2" data-name="图层 2" xmlns="http://www.w3.org/2000/svg" viewBox="0 0 283.46 283.46">
  <defs>
    <style>
      .cls-1 {
        fill: #1c217d;
      }
    </style>
  </defs>
  <g id="_图层_1-2" data-name="图层 1">
    <g>
      <path class="cls-1" d="m212.87,245.02c-.1-.16-.44-.28-.63-.19-.14.06-.25.29-.41.43-.18.15-.4.23-.53.36-.08.09-.14.24-.23.34-.13.17-.34.28-.45.42-.23.3-.22.71-.38.92.22.42.4.68.74.7.26.01.79-.01,1-.13.33-.18.66-.67.78-.91.26-.57.15-1.02.12-1.59-.01-.18.06-.24,0-.34Z"/>
      <path class="cls-1" d="m206.47,232.95c-.35-.19-.69-.46-.79-.82.01-.44.22-1.07-.27-1.37-.35-.22-.41.42-.37.69.15,1.01.43,1.98,1.1,2.72.54-.27.89-.71,1.41-1.11-.09-.13-.19-.2-.29-.31-.26.03-.5-.03-.8.2Z"/>
      <path class="cls-1" d="m83.17,240.14c-.06.04-.12.05-.15-.03-.14.22-.38.36-.39.56.13.02.26.07.39.11.14-.22.24-.43.15-.63Z"/>
      <path class="cls-1" d="m79.54,231.67c-.25.19-1.15,1-1.37,1.42.56-.29,1.21-.29,1.7-.61.08-.05.56-.24.78-.36-.06-.09-.09-.17-.16-.28-.34-.5-.34-.64-.95-.17Z"/>
      <g>
        <path class="cls-1" d="m206.49,230.57c.08.15.18.16.27.24.04-.03.07-.05.11-.07.09-.42-.19-.71-.23-1.08-.21.27.08.64-.15.91Z"/>
        <path class="cls-1" d="m244.39,88.72c.49.16,1.08.07,1.8-.3l.48-.25c.87-.67,1.29-1.26,1.22-1.75-.06-.5-.25-1.08-.57-1.71l-4.41,2.27.46.93c.2.39.55.67,1.03.81Z"/>
        <path class="cls-1" d="m272.99,122.03c-6.89-44.76-36.63-83.87-78.23-102C152.35,1.51,101.86,6.87,64.31,33.91,27.08,60.73,5.94,105.86,9.39,151.65c3.4,45.26,30.55,86.64,70.82,107.66,41.02,21.42,91.77,19.8,131.15-4.63,38.91-24.16,62.94-67.18,63.06-112.98-.02-6.58-.43-13.16-1.42-19.67Zm-17.68-14.44h.06s.03,0,.08,0h.13c.08-.03.16-.04.26-.05.1-.01.19-.03.28-.04,1.12-.1,2.22.23,3.34.96,1.11.73,1.84,1.83,2.19,3.31.37,1.47.23,2.87-.39,4.2-.64,1.34-1.9,2.23-3.83,2.72l-.38.09-.96-3.99.51-.13c.64-.16,1.11-.39,1.38-.73.29-.34.45-.67.46-1.01,0-.07,0-.14-.01-.21,0-.04,0-.1-.02-.15,0-.03,0-.04,0-.04,0,0-.02-.02-.02-.05-.09-.3-.31-.55-.63-.75-.31-.2-.67-.27-1.04-.16-.57.13-.98.44-1.27.91-.29.49-.52,1.05-.71,1.68-.08.26-.17.52-.25.81-.08.28-.17.55-.24.85-.29.97-.74,1.88-1.35,2.76-.6.89-1.61,1.53-3.01,1.93l-.46.12c-2.15.52-3.76.29-4.83-.68-1.07-.96-1.79-2.21-2.16-3.74l-.17-.56c-.28-1.57-.05-2.89.69-3.94.75-1.07,1.98-1.79,3.71-2.21.09-.02.18-.03.29-.06.08,0,.17-.01.26-.05.04-.01.08-.01.12-.01.04-.02.07-.03.11-.04.06,0,.12,0,.2-.02.06-.01.13-.03.18-.04l.97,3.99s-.07.01-.1.01c-.04.02-.09.02-.12.03-.04,0-.08,0-.13,0-.04.01-.08.02-.11.02-.09,0-.16,0-.24.01-.08,0-.13.02-.2.03-.82.2-1.39.51-1.73.94-.33.44-.48.85-.38,1.24v.09s.03.09.04.13c.01.05.04.09.05.12.15.31.41.56.78.75.36.2.8.23,1.31.1.53-.11.94-.41,1.24-.87.28-.44.55-.97.76-1.59.11-.29.23-.61.33-.92.1-.31.22-.63.35-.94.36-1.03.87-1.99,1.53-2.91.66-.94,1.69-1.57,3.12-1.92Zm-4.3-22.51c.72,1.38.96,2.66.75,3.84-.2,1.19-1.04,2.2-2.47,3.06-1.07.54-2.03.84-2.9.87-.87.03-1.67-.25-2.43-.85.15.7.15,1.33-.02,1.85-.17.52-.53.94-1.06,1.2l-3.96,2.26c-.6.31-.98.61-1.11.87-.14.25-.16.47-.09.64l-.53.27-1.82-3.54c-.27-.53-.37-.89-.28-1.13.09-.22.43-.51,1.04-.81l3.47-1.79c.56-.3.91-.62,1.06-.97.15-.36.08-.83-.22-1.43l-.48-.91-6.49,3.34-2.07-4.01,16.63-8.59,3,5.82Zm-13.35-20.84l-2.66,2.31-3.88-4.48-2.71,2.35,3.62,4.18-2.95,2.57-3.63-4.18-3.01,2.62,3.89,4.47-2.82,2.43-6.81-7.86,14.12-12.28,6.84,7.88Zm-31.26-27.95l3.69,2.61-5.62,11.75,9.33-9.12,3.72,2.63-14.19,12.86-4.36-3.07,7.43-17.66Zm-19.81-9.81l4.17,1.76-7.24,17.23-4.17-1.75,7.23-17.25Zm-29.23-7.73l4.44.81,1.56,11.27,1.37-10.74,4.32.8-3.38,18.39-4.51-.84-1.62-10.89-1.31,10.36-4.25-.78,3.38-18.39Zm-25.92-.58l.89,14.17c.04.5.2.86.5,1.13.29.25.6.4.94.4.02,0,.03,0,.04,0h.05s.06-.02.11-.02c.03,0,.05,0,.08-.05.33-.04.64-.24.89-.55.26-.3.38-.74.35-1.27l-.88-13.99,4.57-.28.83,13.2c.14,2.24-.28,3.8-1.25,4.7-.99.87-2.35,1.38-4.1,1.49-2.09.12-3.7-.19-4.82-.93-1.11-.77-1.73-2.07-1.85-3.92l-.86-13.78,4.52-.28Zm-52.02,16.02l8.38,7.72-5.77-9.16,3.82-2.13,9.1,16.34-4,2.22-8.18-7.36,5.59,8.81-3.78,2.1-9.1-16.34,3.94-2.2Zm-21.45,15.62l15.86,10.76-3.34,3.14-2.96-2.3-2.45,2.31,2.11,3.11-3.28,3.07-9.68-16.58,3.75-3.51Zm-22.08,26.47l5.97,3.85,1.61-2.5-5.98-3.85,2.48-3.85,15.73,10.1-2.47,3.86-6.47-4.16-1.61,2.5,6.47,4.17-2.44,3.82-15.74-10.12,2.45-3.81Zm-12.62,25.19c.5-1.44,1.37-2.56,2.61-3.34,1.24-.79,2.8-.87,4.67-.21l.38.12-1.33,3.88-.5-.18c-.63-.22-1.14-.26-1.56-.11-.43.12-.75.32-.93.59-.03.06-.07.12-.1.17-.03.06-.05.11-.06.16-.01.02-.01.04-.01.04,0,0,0,.03-.02.05-.08.3-.04.63.11.97.16.33.42.57.8.69.55.19,1.08.17,1.56-.1.49-.25,1-.61,1.51-1.04.2-.17.42-.35.63-.53.22-.19.45-.4.67-.59.76-.65,1.64-1.2,2.62-1.62.99-.43,2.17-.43,3.58,0l.45.15c2.1.72,3.33,1.76,3.72,3.16.38,1.39.31,2.82-.2,4.31l-.16.57c-.6,1.46-1.51,2.45-2.7,2.94-1.2.48-2.64.44-4.32-.15-.09-.03-.19-.06-.26-.1-.08-.03-.17-.08-.25-.1-.05-.01-.08-.03-.12-.04-.03-.01-.06-.02-.11-.03-.03-.04-.1-.07-.17-.09-.07-.02-.13-.04-.19-.06l1.33-3.88s.09,0,.11.03c.04,0,.08.03.11.04.04.03.07.05.11.07.05,0,.09.02.13.03.07.05.12.1.2.13.06.03.12.05.16.07.82.27,1.47.31,1.98.13.53-.17.86-.45,1-.84l.02-.03s0-.03,0-.04c.01-.03.03-.08.05-.11,0-.06,0-.1,0-.14.03-.33-.05-.69-.26-1.04-.19-.35-.54-.63-1.04-.79-.5-.17-1.01-.15-1.5.06-.49.22-.99.53-1.51.93-.26.19-.51.4-.76.59-.26.22-.52.42-.82.63-.82.66-1.79,1.19-2.83,1.62-1.06.43-2.28.4-3.67-.06-.01,0-.04-.02-.05-.04-.02-.02-.05-.03-.08-.03-.01-.01-.02-.03-.04-.04-.02-.02-.03-.03-.05-.03-.09-.03-.19-.06-.27-.11-.08-.04-.17-.07-.25-.11-1-.5-1.76-1.38-2.3-2.59-.55-1.22-.58-2.54-.09-3.97Zm-5.55,30.23l11.09-2.57-10.81-.4.4-4.36,18.63,1.71-.42,4.55-10.7,2.6,10.43.36-.4,4.31-18.62-1.71.41-4.49Zm.73,26.46l17.85-6.99.7,4.53-3.57,1.15.51,3.33h3.75s.69,4.46.69,4.46l-19.14-1.4-.8-5.09Zm19.52,30.35l-7.81,8.26-1.78-4.15,4.47-4.51-6.33.14-1.71-4,11.38.09,7.61-3.26,1.78,4.17-7.61,3.25Zm16.61,29.85h-3.6l-1.83-3.15,1.83-3.13h3.6l1.83,3.13-1.83,3.15Zm11.82,23.09c-.15.16-.43.06-.59.2-.47.42-.05.58-.61.75-.1.03-.87.18-1,.19-.91.03-1.45.08-2.51-.79-.43-.35.08-1.47.16-1.82.11-.47.43-1.25.95-.75.05.04.13.17.17.23.11.15.58.3.79.34.35.08.5.3.81.49.28.17.91.39,1.11.6.07.02.69.31.75.34.37.3.02.16-.03.22Zm12.38,10.21c.02.1-.07.15-.09.23-.02.09-.03.18-.04.26-.01.07-.03.14-.07.21-.02.04-.04.07-.06.11-.02.04-.03.08-.04.11-.07.2-.2.37-.34.53-.1.19-.25.35-.45.45-.33-.09-.68.12-.97-.05-.17-.09-.37-.16-.47-.33-.24-.34-.22-.79-.49-1.11-.17-.21-.27-.47-.34-.73-.02-.23-.04-.46-.18-.66-.01-.02-.02-.05-.04-.07-.03-.18-.42-.92-.28-1.05.16-.14.31.09.4.2.08.13.22.17.35.22-.01-.06-.03-.12-.05-.17-.1-.24-.09-.53-.17-.78-.07-.21-.18-.4-.31-.57-.02,0-.14-.13-.16-.15-.07-.05-.15-.09-.23-.11-.14-.04-.32-.05-.46-.06-.11,0-.22,0-.33.02-.18.02-.37.05-.54.09-.06.01-.12.03-.18.05-.21-.03-.46.04-.68-.01-.06-.01-.12-.01-.16,0-.03-.01-.06-.03-.08-.04-.45-.32-.83-.75-1.18-1.18-.06-.07-.11-.14-.17-.21-.55-.72-2.03-.47-2.72-.88,0,0,0,.02-.02.02l-.06-.08s0,0-.01,0c.01.02.02.03.03.05-.47-.23-.81-.7-.88-1.22-.02-.15-.02-.31-.01-.46.03-.5.14-1,.33-1.47.17-.24.33-.07.49,0,.13.05.57.34.7.44.31.21.63.56.88.8.06.06.12.11.17.15.22.22.4.5.66.69.23.17.47.42.74.5.42.14.88.12,1.27.34.03.02.06.04.09.06.11.08.21.16.31.24.84.61.98.79,1.49,1.36.03.03.59.44.76.61.24.17.56.37.92.57.01,0,.02,0,.03.02.07.04.14.08.21.11.04.02.08.04.11.06.21.12.44.23.66.33.05.05.11.1.17.15,0,0,.02.02.03.02.03.03.07.06.11.08,0,0,.02.01.03.02.03.02.05.05.08.07.03.03.06.06.1.09.14.12.27.25.39.4.2.25.37.52.55.78.08.11.11.24.15.37,0,.04.02.07.02.11,0,.03-.01.06-.01.09,0,.06.05.12.05.18,0,.04-.03.08-.03.12,0,.03.02.05.02.08Zm9.76-21.19c-.19.61-1.54.93-1.55.99-.06.48.44.22.83.87,0,.11-.05.26-.06.42-.01.18.07,1.35-.64,1.76-.13-.01-.56.17-.7.15-.55-.29-1.01-.73-1.55-1.04-.45-.26-.9-.49-1.39-.4-.64.12-3.01-.11-3.14.63.65.41,1.14.68,1.09,1.65-.04.93-1.03.92-1.67.84-.5-.06-.88-.08-1.29.21.7.34,1.47.19,2.09.32.15.03.32.14.36.3.18.65.25,1.28,0,1.91-.32.84-1.19,1.04-1.92,1-.09,0-.28-.11-.37-.16-.68-.03-1.12.08-1.76.54.19.27.52.2.74.28,1.27.44,3.04-.95,3.69-1.71.45-.53.99-.84,1.43-1.34.21-.24.52-.42.69-.7.15-.24.05-.56.2-.8.25-.1.5-.13.74-.24.85.3.87.62,1.25,1.29-.17.41,0,.78-.18,1.18-.9.56-.99.81-.65,1.76.25.7.53,2.35-.22,2.63-.06.02-.24.13-.37.15-.04,0-.53.27-.77.24-.52-.05-.99-.12-1.5-.37-.74-.38-1.48.18-2.24.07-.57-.32-2.15.22-1.85,1.09,1.11.96,2.97.51,3.49,2.12.45.89-1.65,1.96-1.73,1.91-.46-.18-.98-.39-1.41-.64-.31-.18-.6-.32-.87-.57-.31-.3-.82-.21-1.07-.53-.69-.24-1.28-.36-1.96-.7-.1-.05-.22-.08-.34-.11-.57-.21-1.11-.49-1.65-.75.11-.57,1.79.42,2.25-.02-.03-1.27.32-1.32,1.26-1.96.41-.27.76-.6.36-1.02-.21-.22-.23-.94-.16-.99-.42-.17-.69.55-1.09.77-.05.06-.33.53-.37.64-.42,1.02-1.7.53-1.99-.3.18-.53-.28-.99-.45-1.48.27-.37.57-.55.91-.71.6-.28.93-.42,1.41-.58.52-.16.75-.69,1.21-.67.27.01.05.46.4.51.26-.23.61-.27.82-.45-.37-.56-1.85-.5-2.43-.47-.61.03-1.27.38-1.66.88,0,.41-.37.85-.77.94-.05,0-1.2.42-1.6.08-.45-.38.27-1.22-.2-1.46-.42-.21-.98.07-1.45.28-.16.07-1.56.44-1.94.51-.03,0-.41-.04-.54-.08-.12-.03-.99-.01-1.23-.49-.04-.08.03-.39.02-.43.01-.25,0-.5-.03-.74.05-.31.15-.59.31-.86.35-.58,1.48-.07,2.14-.38.75-.35,1.59-.84,2.09-1.52-.37-.22-.82-.28-1.23-.4-.61-.18-.92-.46-1.24-.95-.24-.37-.12-.41-.36-.74-.24-.32.05-1.29.16-1.35.66-.3,1.1.37,1.85.51.39.07.71.3,1.1.37.46.08.94,0,1.37.23.5-.42.5-.91.54-1.37.09-.86-.08-1.08.03-1.85.24-.08,1.58-.21,2.02-.04.07.23.6.82.57.82.34.29.44.82.56,1.23.21.7-.38,1.38-.44,1.41-.54.26.23.97.12,1.48-.16.75-.44.9-1.25.91-.73.02-1.42.74-1.38,1.47.88.25,1.48-1.54,2.45-1.22,1.02.33,1.55-.54,1.71-1.36-.49-.34-.63-.74-.67-1.4.05-.09.1-.19.14-.28.03-.07-.02-.28.02-.32-.1-.36.04-.75.13-1.13-.03-.14.67-1.08.89-1.45.14-.22-1.28-.49-1.3-.76-.09-.1-.19-.2-.23-.31.03-.4.41-1.25.9-1.29.67-.06,1.18.22,1.76.47.57.25.85.27,1.39.14.93-.22.18-1.44.69-1.85.32-.26.69-.45,1.01.11.24.42.28.64.51.95.04.42-.49.9-.51,1.33,1,.99,2.24,1.57,3.29,1.9.38-.45,1.01-.52,1.29-1.07.38-.74.14-.82.19-1.56.2-.18.38-.45.59-.54.62.2,1.21.01,1.78.48.59.48.51,1.27.46,1.95.11.38.17.81.05,1.19Zm33.3,31.97c-.03.06-.06.13-.1.21-.05.12-.15.33-.2.36-.19.02-1.1-.15-1.88-.39-.9-.28-1.85-.7-2.16-.83l-.09-.04c-.15-.07-.79-.29-1.04-.35-.23-.06-.46-.15-.7-.25-.32-.13-.68-.27-.96-.31-.08-.02-1.22-.26-1.72-.38-.64-.15-1.34-.26-1.93-.3-.22,0-.43,0-.63,0h-.08c-.2,0-.41,0-.63.17-.11.08-.29.3-.61.72-.06.08-.11.15-.14.18-.11.14-.2.29-.26.42-.04.07-.09.17-.11.18-.1.08-.19.13-.33.16-.16.03-.35-.04-.53-.12-.05-.02-.11-.05-.15-.06-.03-.02-.09-.09-.14-.16-.06-.09-.13-.2-.24-.3-.08-.08-.16-.14-.23-.21-.18-.16-.35-.31-.46-.51-.16-.27-.31-.5-.45-.71-.29-.43-.52-.76-.61-1.24-.05-.25-.11-.45-.17-.63-.04-.12-.08-.23-.11-.36-.07-.28-.04-.57.09-.78.06-.09.16-.2.3-.23.05,0,.1-.01.12-.01.15-.01.23-.04.38-.17.89-.78,1.33-1.24,1.77-2.36.16-.41.4-.77.64-1.14.12-.19.25-.38.44-.5.36-.23.98.05,1.31.23.46.25.74.82.75,1.35v.15c.02,1.75.08,2.63.2,2.93l.04.1.25.13c.17.09.35.19.54.25.23.07.43.07.62,0,.23-.08.3-.22.34-.32.02-.05.04-.09.09-.15.05-.06.09-.11.13-.15.21-.25.29-.36.36-.81.02-.12.08-.26.14-.41.06-.14.12-.29.15-.44.04-.19.09-.44.15-.72.18-.83.54-2.57.71-2.81.47-.63,1.12-1.49,1.81-1.56.15-.02.26-.06.36-.09.09-.03.13-.04.16-.03.12.04.23.11.32.2.41.36.61.64.79,1.09.03.07.07.12.1.16.01.01.02.03.02.02.05.16.08.35.12.54.05.3.11.63.25.94.09.19.18.36.26.52.13.25.25.47.33.73.05.15.12.29.19.43.15.3.29.58.19.93-.03.11-.15.39-.24.58-.09.21-.13.31-.15.36-.07.22-.21.45-.34.66-.15.24-.29.47-.33.71-.04.27.02,1.1.4,1.37.08.05.16.08.21.1l.14.04s.06.02.09.03c.16.11.3.16.44.23.18.08.39.17.74.41.16.16,1.2.61,1.35.79.07.09.14.17.22.26.16.43-.19.81-.3,1.2Zm5.73-2.65c-.01.11-.12.47-.19.68-.11.35-.44,1.52-.56,2.14-.09.42-.28.59-.53.8-.16.13-.33.29-.49.52-.12.18-.29.35-.46.51l-.06.06c-.24.23-.52.34-.87.34,0,0-.01,0-.04-.01-.53-.16-1.84-1.45-1.97-1.63-.14-.19-.12-.92.06-1.27.02-.04.12-.19.24-.39.53-.83.8-1.29.85-1.43.08-.23.16-.38.26-.57.26-.5.4-.89.43-1.15.01-.11.02-.22.04-.33.01-.1.03-.19.03-.28.02-.19.04-.35.05-.5.04-.44.07-.71.24-.97.25-.38.58-.57.84-.49.05.01.1.04.15.08.08.06.17.16.26.27.08.09.16.18.24.25l.15.12c.79.68.91.78.96,1.35.03.36.09.57.16.77.03.08.06.17.08.28l.04.16c.08.33.11.46.09.71Zm49.52,2.2c-.31.19-.89.33-1.46.39-.54.06-2.15.52-2.51.62-.24.06-.42.07-.65.16-.24.08-1.45.43-1.86.46-.4.02-1.53.14-1.6-.03-.01-.06-.03-.13-.05-.19.88-.59,1.46-1.35,2.16-2.05.21-.36.5-.58,0-.83-.4-.21-.8-.24-1.31-.19-.16-.04-.3-.04-.43,0-.1-.03-.22-.04-.34-.04-.13-.01-.26-.02-.39-.03-.4-.02-.8.09-1.19-.04-.03,0-.07,0-.1.04-.22-.02-.44-.04-.65-.06-.24-.02-.48-.03-.73-.02-.51-.07-1.03-.18-1.54-.27-.07-.01-.16.09-.18.16-.25.15-.39.67-.5.92-.18.4-.36.79-.54,1.19-.2.43-.32.91-.64,1.26-.28.31-.49.66-.7,1.02-.19.32-.38.63-.63.9-.32.35-.73.48-1.09.76-.08.06-.2.28-.42.33-.47.02-.77-.08-1.22-.05-.58-1.01-.81-2.96-.81-2.96,0,0,.58-.92,1.21-1.36.18-.13.26-.16.41-.14.18.16.05.49.3.65.44-.05.43-.52.59-.83.4-.77.67-1.4.95-2.34.1-.33.29-.64.35-.98.13-.77.31-1.35.52-1.96.2-.58.38-1.12.57-1.62.03-.07.14-.2.15-.28.02-.19.22-.54-.07-.63-.31-.1-.6.23-.83.37-.3.18-.62.34-.94.48-.49.22-.93.43-1.4.7-.24.14-.6.39-.84.26-.31-.17-.7-.45-1.01-.76-.08-.15-.18-.3-.28-.46-.02-.03-.05-.03-.08-.02-.05-.1-.09-.19-.12-.29-.06-.25-.03-.54.16-.7.09-.07.2-.11.31-.15,1.14-.37,2.28-.84,3.45-1.11.06-.01.1-.04.15-.07.09-.03.17-.07.25-.13.03-.02.06-.04.08-.07.08,0,.16,0,.22-.05,0,0,.01,0,.02-.01.02,0,.05,0,.07-.01.11-.04.21-.07.31-.11.1,0,.2-.05.28-.12.16-.05.32-.11.47-.19.07-.02.13-.06.18-.11.08-.06.15-.15.18-.24.01-.02.03-.05.05-.09.01-.02.02-.04.03-.06.15-.41.33-.82.5-1.23.07-.17.19-.35.23-.53.05-.23,0-.49.03-.73.06-.36.24-.74.18-1.11-.08-.45-.33-1.03-.19-1.49.23-.72,1.29-.32,1.85-.25.34.04.69.09.97.28.06.04,1.09,1.1,1.1,1.06-.02.11-.04.22-.06.33-.02.02-.04.04-.06.06-.08.09-.13.2-.13.32-.02.06-.03.12-.03.18-.09.21-.14.45-.2.66,0,0,0,0,0,.01-.09.16-.44.85-.41.92.1.29.58.07.69-.03.18-.16.3-.62.5-.9.09-.04.15-.11.18-.18.03-.02.05-.03.08-.04.19-.05.64.21.74.34.47.58,2.4.28,2.49.26.26.13.52.24.58.52.07.35-.18.74-.2,1.02,0,.2-.76.35-1.27.52-.09.03-.31.09-.41.14-.2.08-.45.12-.64.19-.56.21-2.29.75-2.34.77-.33.12-.89.27-1.09.43-.15.12-.03.08-.15.32-.07.15-.08.31-.16.47-.29.59-.46,1.33-.68,2-.07.23-.26.4-.34.6-.07.17-.11.4-.17.59-.08.24-.31.84-.2,1.08.15.32.95.42,1.25.41.39,0,.78-.13,1.17-.14.6-.01,1.11.13,1.71.04.69-.11,1.49-.01,2.19.05.67.06,1.31.25,1.98.21.6-.03,1.22-.18,1.81.05.84.32,1.25.99,1.88,1.47.16.19.43.25.53.46.08.15.11.23.16.37.39.68-.11,1.37-.32,1.5Zm24.35-15.93c-.31.42-1.19.52-1.51.31-.1-.07-.22-.28-.36-.39-.21-.18-.46-.2-.6-.37-.2-.25-.26-.72-.36-1.09-.1-.41-.13-.83-.31-1.2-.26-.52-.89-1.11-.95-1.55-.05-.36.29-.9.62-1.09.57-.33,1.18-.41,1.71-.13.12.07.24.22.38.34.49.42,1.18.89,1.42,1.72.11.37.12.75.1,1.09-.02.34-.13.68-.13,1.03,0,.46.23.99-.02,1.33Zm17.38-4.16c-.16.07-.31-.08-.52-.08-.2,0-.4.01-.71.09-.13.04-.36.16-.45.2-.44.19-.94.7-1.44.97-.31.17-.48.22-.46.58.04.54.25,1.68.2,1.72-.15,1-.66,1.73-1.07,2.58,0,.07-1,1.39-1.35,1.38-.1,0-.5.01-.63.04-.16.03-.65.11-.74.11-.16.02-.3-.05-.51-.06-.26,0-.44.1-.68.01-.86-.31-.65-1.25-1.18-2.03-.08-.11-.27-.54-.28-.7-.01-.22.23-.34.33-.53.05-.11.03-.23.08-.33.09-.16.28-.29.39-.46.23-.35.48-.66.71-.95.16-.21.53-.62.43-.84-.12-.27-.45-.2-.63-.31-.11-.06-.17-.17-.28-.24-.26-.16-.66-.15-.77-.4-.11-.22.11-.45.28-.66.05-.49-.27-1.05-.41-1.58-.42-.36-.91.35-1.07.64-.2.36-.25.54-.38.88-.09.24-.21.6-.38.87-.22.38-.31.74-.7.56-.17-.3-.68-.39-.81-.86-.03-.71.35-.81.46-1.51.14-.86.61-1.4.98-2.01.18-.29.5-.64.8-.8.37-.19.62-.52.97-.82.13-.11.3-.18.4-.27.1-.09.1-.23.18-.36.08-.1.2-.16.26-.25.18-.3.31-.63.4-.89.13-.36.35-.76.55-1.19.15-.31.51-.92-.11-.97-.86.35-2.2,1.54-2.8,1.86-.29.16-.55.44-.81.7-.19.19-.36.46-.53.59-.12.1-1.35.88-1.6,1.24-.14.21-.62.92-.71,1.02-.14.16-.52.6-.59.67-.26.27-.33.87-.63,1.1-.38.28-.73.22-1.18.22-.27,0-.53-.03-.82.1-.12-.03-.25-.04-.35-.11-.48-.32.28-.96.63-1.4-.55-.83-1.01-1.11-1.91-2.08-.21-.22-.49-.36-.87-.61-.17-.11-.38-.12-.49-.21-.06-.05-.12-.1-.2-.21-.07-.11-.31-.3-.39-.44-.03-.05-.19-.28-.22-.32-.18-.24-.33-.31-.41-.56-.04-.15.09-.25.11-.42.02-.2-.15-.37-.01-.53.11-.13.22-.22.3-.24.52-.14,1.35-.11,1.62.11.02.4.41.64.66,1,.1.15.2.26.29.4.08.12.22.2.29.31.18.27.32.48.53.65.16.13.36.23.5.39.07.09.14.18.21.26.1.14.21.23.34.37.26.28.42.66.71.95.23-.18.33-.39.46-.58-.4-.79-1.16-1.21-1.68-1.84-.33-.4-.6-.87-.97-1.27-.4-.42-.83-.87-1.11-1.46-.11-.06-.25.2-.4.2-.36,0-.23-.68-.36-1.04-.18-.26-.34-.43-.34-.74,0-.34.2-.74.62-.8.66-.09,1.48.57,1.85,1.06.07.12.03.21.06.32.99,1.49,2,3.3,3.29,4.27.13-.14-.04-.2-.14-.37-.05-.43-.4-.8-.62-1.21-.06-.11-.08-.28-.15-.4-.06-.09-.17-.09-.24-.18-.19-.2-.34-.42-.54-.61-.21-.21-.42-.65-.44-.93-.02-.28.17-.62.44-.73.1-.04.25.1.45.09.09,0,.16-.08.22-.07.18.01.32.06.46.11.37.13.16.63.17.93.23.4.42.77.56,1.17.04.13.12.2.18.32.19.35.44.67.67,1,.11-.15.01-.26-.03-.4-.09-.24-.21-.39-.24-.7-.03-.27-.12-.49-.28-.82-.33-.65-.3-1.53-.71-1.96-.32-.33-1.16-.51-1.44.09-.38.12-.65-.32-1.01-.29-.32-.2-.56-.43-.32-.75-.07-.49-.43-1.15-.86-1.78-.16-.23-.4-.38-.53-.61-.18-.32-.18-.69-.35-.92-.26-.32-.69-.28-.92-.5-.36-.35-.45-1.04-.13-1.34.54-.52,1.45-.26,2.18-.16.14.02.24.24.4.19.41-.36.81-.87,1.24-1.08.3-.14.62-.16,1.01-.1.32.05.51.23.76.38.04.44-.49.63-.74,1.01-.06.08-.05.2-.1.3-.26.53-.86,1.08-1.07,1.5-.12.25,0,.32.07.62.05.25-.02.25.16.58.18.33.25.99.68,1.01.32-.17.6-.14.91-.31.04.01,0-.04.1-.02.34.05.68.47.9.24.19-.21.29-.6.6-.72.45-.16.95.02,1.39.23-.41-.79-.98-1.41-1.21-2.24-.1-.04-.2-.09-.31-.06-.22.24-.15.47-.14.83,0,.28-.05.53-.23.81-.4.31-.89.5-1.18.6-.3.02-.99-.07-.85-.55.11-.4.04-.75.19-1.18.32-.92,1.05-1.7,1.95-2.09.25-.03.46-.06.76-.09.43-.04.94.31,1.43.46.23.07.53,0,.71.25.14.2.06.55.11.78.1.47.27,1.05.17,1.51.17.72.7,1.31.92,2.05.07.22.09.45.15.67.07.23.18.46.22.66.02.15-.08.22.02.33.26.27.73-.26.93-.51.33-.41.45-.93.88-1.1.64-.24,1.4-.21,2.05-.23.41-.01.9-.27,1.11-.02.29.35.55.45.52.88,0,.07-.1.33-.13.4-.27.59-.51,1.01-.77,1.64-.55,1.34-1.47,2.66-2.38,3.74-.06.07-.15.1-.22.15.42.1,1.04.41,1.04.96-.46.42-.6.78-.8,1.39-.07.23-.08.58-.08.87,0,.33.08.93.17,1.04.19.25,1.11.21,1.46.21.3,0,.57.11.85.16.45-.43,1.1-.79,1.74-1.14.66-.36,1.18-.99,1.72-.78.09.12.67.35.87.49.33.24,1.28.3,1.2.97-.03.28-.12.64-.5.8Zm12.72-23.53h-3.62l-1.82-3.15,1.82-3.13h3.62l1.79,3.13-1.79,3.15Zm-17.13-12.35c-15.17,17.08-35.64,28.32-57.64,31.67-4.97.76-10.04,1.13-15.07,1.13-18.19,0-35.73-4.89-50.74-14.13-19.12-11.78-33.67-29.69-40.99-50.42-7.73-21.89-7.38-46.59.96-67.76,8.22-20.88,23.26-38.37,42.36-49.21,14.75-8.4,31.51-12.83,48.47-12.83,5.98,0,11.95.57,17.77,1.67,22.28,4.22,42.39,16.03,56.64,33.23,14.49,17.49,22.51,39.61,22.59,62.28l-.77.02h.77l-.8.02.8.03c-.08,23.9-8.74,46.74-24.35,64.3Zm40.77-17.07l-6.34-.21,4.42,4.55-1.78,3.97-7.67-8.38-7.57-3.35,1.84-4.17,7.58,3.36,11.36.1-1.84,4.13Zm6.59-20.54l-3.65-.64.58-3.26-14.77-2.61.78-4.49,14.77,2.6.62-3.46,3.65.64-1.98,11.22Zm-15.86-28.11l-.14-4.52,18.71-.57.14,4.53-18.7.56Z"/>
        <path class="cls-1" d="m141.74,0C63.45,0,0,63.46,0,141.73s63.45,141.73,141.74,141.73,141.73-63.46,141.73-141.73S220.02,0,141.74,0Zm29.89,276.47c-45.11,9.81-93.27-3.58-126.33-36C12.32,208.14-2.64,160.54,6.25,115.15,14.92,70.98,45.7,32.51,87.22,14.88,129.82-3.2,180.05.99,218.54,27.04c37.95,25.65,61.08,68.82,61.2,114.67-.04,17.52-3.28,35.1-9.89,51.37-16.98,41.74-53.99,73.79-98.23,83.39Z"/>
        <polygon class="cls-1" points="58.24 54.08 63.01 60.98 64.74 59.33 58.24 54.08"/>
        <polygon class="cls-1" points="22.13 160.36 30.51 160.31 30.15 157.95 22.13 160.36"/>
        <path class="cls-1" d="m141.74,48.98c-51.22,0-92.75,41.53-92.75,92.75s41.53,92.75,92.75,92.75,92.75-41.53,92.75-92.75-41.53-92.75-92.75-92.75Zm-54.36,45.79l52.93,30.56v61.11l-52.93-30.56v-61.11Zm37.86,121.81v3.6h-11.61v-3.02c3.44-5.62,5.49-9.1,6.13-10.44s.97-2.38.97-3.13c0-.57-.1-1-.29-1.29-.2-.28-.5-.42-.9-.42s-.7.16-.9.47c-.2.31-.29.94-.29,1.87v2.01h-4.73v-.77c0-1.18.06-2.12.18-2.8.12-.68.42-1.36.9-2.02.48-.66,1.1-1.16,1.87-1.5.77-.34,1.68-.51,2.76-.51,2.1,0,3.68.52,4.76,1.56,1.08,1.04,1.61,2.36,1.61,3.95,0,1.21-.3,2.49-.91,3.84-.6,1.35-2.39,4.21-5.35,8.59h5.78Zm15.5-3.36c0,1.6-.09,2.76-.26,3.49s-.53,1.41-1.08,2.05c-.55.63-1.21,1.09-1.98,1.37s-1.64.42-2.59.42c-1.26,0-2.31-.15-3.14-.44-.83-.29-1.5-.75-1.99-1.36s-.85-1.27-1.06-1.95c-.21-.68-.31-1.77-.31-3.25v-7.37c0-1.94.17-3.39.5-4.35.33-.96,1-1.74,1.99-2.32s2.2-.87,3.62-.87c1.16,0,2.19.2,3.1.61.91.4,1.59.9,2.05,1.48.45.58.76,1.24.92,1.97.16.73.24,1.89.24,3.49v7.04Zm.83-89.82l-52.93-30.56,52.93-30.56,52.93,30.56-52.93,30.56Zm12.85,93.17v3.6h-11.61v-3.02c3.44-5.62,5.49-9.1,6.13-10.44s.97-2.38.97-3.13c0-.57-.1-1-.29-1.29-.2-.28-.5-.42-.9-.42s-.7.16-.9.47c-.2.31-.29.94-.29,1.87v2.01h-4.73v-.77c0-1.18.06-2.12.18-2.8.12-.68.42-1.36.9-2.02s1.1-1.16,1.87-1.5c.77-.34,1.68-.51,2.76-.51,2.1,0,3.68.52,4.76,1.56,1.08,1.04,1.61,2.36,1.61,3.95,0,1.21-.3,2.49-.91,3.84s-2.39,4.21-5.35,8.59h5.78Zm14.41,0v3.6h-11.61v-3.02c3.44-5.62,5.49-9.1,6.13-10.44s.97-2.38.97-3.13c0-.57-.1-1-.29-1.29-.2-.28-.5-.42-.9-.42s-.7.16-.9.47c-.2.31-.29.94-.29,1.87v2.01h-4.73v-.77c0-1.18.06-2.12.18-2.8.12-.68.42-1.36.9-2.02s1.1-1.16,1.87-1.5c.77-.34,1.68-.51,2.76-.51,2.1,0,3.68.52,4.76,1.56,1.08,1.04,1.61,2.36,1.61,3.95,0,1.21-.3,2.49-.91,3.84s-2.39,4.21-5.35,8.59h5.78Zm-25.99-30.14v-61.11l52.93-30.56v61.11s-52.93,30.56-52.93,30.56Z"/>
        <path class="cls-1" d="m134.54,201.88c-.39,0-.65.15-.78.45-.13.3-.19.99-.19,2.08v10.3c0,1.23.06,1.96.18,2.22.12.25.37.38.76.38s.65-.15.77-.44c.12-.3.18-.96.18-1.99v-10.45c0-1.12-.05-1.82-.16-2.11-.11-.28-.36-.42-.76-.42Z"/>
      </g>
    </g>
  </g>
</svg>