<?xml version="1.0" encoding="UTF-8"?>
<svg id="_图层_2" data-name="图层 2" xmlns="http://www.w3.org/2000/svg" viewBox="0 0 737.26 172.66">
  <defs>
    <style>
      .cls-1 {
        fill: #8f2122;
      }

      .cls-2 {
        fill: #006934;
      }

      .cls-3 {
        fill: #009fe8;
      }

      .cls-4 {
        fill: #009844;
      }

      .cls-5 {
        fill: #036eb7;
      }

      .cls-6 {
        fill: #c30d23;
      }

      .cls-7 {
        fill: #3e3a39;
        stroke: #4d4d4d;
        stroke-miterlimit: 10;
      }
    </style>
  </defs>
  <g id="_图层_3" data-name="图层 3">
    <g>
      <g>
        <polygon class="cls-2" points="0 28.78 49.84 57.55 49.84 0 0 28.78"/>
        <polygon class="cls-2" points="49.84 57.55 0 28.78 0 86.33 49.84 57.55"/>
      </g>
      <g>
        <polygon class="cls-4" points="49.84 57.55 99.68 86.33 99.68 28.77 49.84 57.55"/>
        <polygon class="cls-4" points="99.68 28.78 49.84 0 49.84 57.55 99.68 28.78"/>
      </g>
      <g>
        <polygon class="cls-2" points="99.68 28.78 149.53 57.55 149.53 0 99.68 28.78"/>
        <polygon class="cls-2" points="149.53 57.55 99.68 28.78 99.68 86.33 149.53 57.55"/>
      </g>
      <g>
        <polygon class="cls-4" points="149.53 57.55 199.37 86.33 199.37 28.77 149.53 57.55"/>
        <polygon class="cls-4" points="199.37 28.78 149.53 0 149.53 57.55 199.37 28.78"/>
      </g>
    </g>
    <g>
      <g>
        <polygon class="cls-1" points="99.68 86.33 149.53 115.11 149.53 57.55 99.68 86.33"/>
        <polygon class="cls-1" points="149.53 115.11 99.68 86.33 99.68 143.88 149.53 115.11"/>
      </g>
      <g>
        <polygon class="cls-6" points="149.53 115.1 199.37 143.88 199.37 86.33 149.53 115.1"/>
        <polygon class="cls-6" points="199.37 86.33 149.53 57.55 149.53 115.11 199.37 86.33"/>
      </g>
    </g>
    <g>
      <g>
        <polygon class="cls-3" points="0 143.88 49.84 172.66 49.84 115.1 0 143.88"/>
        <polygon class="cls-3" points="49.84 115.11 0 86.33 0 143.88 49.84 115.11"/>
      </g>
      <g>
        <polygon class="cls-5" points="49.84 115.11 99.68 143.88 99.68 86.33 49.84 115.11"/>
        <polygon class="cls-5" points="99.68 143.88 49.84 115.11 49.84 172.66 99.68 143.88"/>
      </g>
    </g>
    <polygon class="cls-7" points="272.89 148.18 284.29 11.33 312.66 11.33 354.06 97.68 396.99 11.33 424.78 11.33 436.09 148.66 404.85 148.66 399.68 69.41 370.35 126.43 339.68 126.43 309.31 68.64 303.84 148.08 272.89 148.18"/>
    <path class="cls-7" d="m462.52,11.62h32.63v92.86s-1.37,24.94,24.94,24.94,27.74-25.37,27.74-25.37V11.62h32.99v96.31s-5.39,45.07-59.37,45.07-58.94-43.99-58.94-43.99V11.62Z"/>
    <path class="cls-7" d="m710.08,80.04l-26.45-68.42h-34.6l-26.78,67.99-26.79,67.99h33.64l5.08-13.42,5.08-13.42h53.52l5.34,13.85,5.34,13.85h33.06l-26.45-68.42Zm-43.94,15.24h-21.04l10.06-31.72,10.06-31.72,10.97,31.72,10.97,31.72h-21.04Z"/>
  </g>
</svg>