<?xml version="1.0" encoding="UTF-8"?>
<svg id="_图层_2" data-name="图层 2" xmlns="http://www.w3.org/2000/svg" viewBox="0 0 241.13 66.72">
  <defs>
    <style>
      .cls-1, .cls-2 {
        fill: #fff;
      }

      .cls-2 {
        fill-rule: evenodd;
      }
    </style>
  </defs>
  <g id="_图层_1-2" data-name="图层 1">
    <polygon class="cls-1" points="11.43 50.38 10.99 51.14 11.43 51.9 12.3 51.9 12.74 51.14 12.3 50.38 11.43 50.38"/>
    <polygon class="cls-1" points="7.89 31.39 5.36 31.3 7.95 30.67 8.05 29.57 3.55 29.16 3.45 30.22 6.07 30.31 3.38 30.93 3.28 32.02 7.79 32.43 7.89 31.39"/>
    <path class="cls-1" d="m15.17,57.44s-.16-.08-.18-.08c-.05-.05-.2-.1-.27-.15-.08-.05-.11-.1-.2-.12-.05-.01-.16-.05-.19-.08,0-.01-.03-.04-.04-.06-.13-.12-.2.07-.23.18-.02.08-.14.36-.04.44.26.21.39.2.61.19.03,0,.22-.04.24-.05.13-.04.03-.08.15-.18.04-.03.11-.01.14-.05.01-.01.1.02,0-.05Z"/>
    <polygon class="cls-1" points="7.85 43.67 5.1 43.65 5.51 44.62 7.04 44.58 5.96 45.67 6.39 46.68 8.28 44.68 10.12 43.89 9.69 42.88 7.85 43.67"/>
    <path class="cls-1" d="m8.22,37.83h-.91s-.12-.81-.12-.81l.86-.28-.17-1.1-4.32,1.69.19,1.23,4.63.34-.17-1.08Zm-3.76.04l1.94-.58.09.57h-2.03Z"/>
    <path class="cls-1" d="m18.15,59.87s0-.01,0-.02c0,0,0-.02,0-.03,0-.03-.02-.06-.04-.09-.04-.06-.08-.13-.13-.19-.03-.04-.06-.07-.09-.1,0,0-.02-.01-.02-.02,0,0-.01-.01-.02-.02,0,0,0,0,0,0,0,0-.02-.01-.03-.02,0,0,0,0,0,0-.01-.01-.03-.02-.04-.04-.05-.03-.11-.05-.16-.08,0,0-.02,0-.03-.01-.02,0-.03-.02-.05-.03,0,0,0,0,0,0-.09-.05-.16-.1-.22-.14-.04-.04-.18-.14-.18-.15-.12-.14-.16-.18-.36-.33-.02-.02-.05-.04-.08-.06,0,0-.01,0-.02-.01-.09-.05-.21-.05-.31-.08-.07-.02-.12-.08-.18-.12-.06-.05-.1-.11-.16-.17-.01-.01-.03-.02-.04-.04-.06-.06-.14-.14-.21-.19-.03-.02-.14-.09-.17-.11-.04-.02-.08-.06-.12,0-.05.11-.07.23-.08.36,0,.04,0,.07,0,.11.02.12.1.24.21.29,0,0,0,0,0-.01,0,0,0,0,0,0v.02s.02,0,.02,0c.17.1.53.04.66.21.01.02.03.03.04.05.08.1.18.21.29.28,0,0,.01,0,.02,0,.01,0,.03,0,.04,0,.05.01.11,0,.17,0,.01,0,.03,0,.04-.01.04,0,.09-.02.13-.02.03,0,.05,0,.08,0,.03,0,.08,0,.11.01.02,0,.04.02.05.03,0,0,.04.04.04.04.03.04.06.09.08.14.02.06.02.13.04.19,0,.01,0,.03.01.04-.03-.01-.07-.02-.08-.05-.02-.03-.06-.08-.1-.05-.04.03.06.21.07.25,0,0,0,.01,0,.02.03.05.04.1.04.16.01.06.04.13.08.18.07.08.06.19.12.27.02.04.07.06.11.08.07.04.15,0,.23.01.05-.02.09-.06.11-.11.03-.04.06-.08.08-.13,0,0,0-.02.01-.03,0,0,0-.02.01-.03,0-.02.01-.03.02-.05,0-.02,0-.04,0-.06,0-.02.03-.03.02-.06,0,0,0-.01,0-.02,0,0,0-.02,0-.03,0-.02-.01-.03-.01-.04Z"/>
    <path class="cls-1" d="m47.84,57.77c-.06-.2-.23-.32-.34-.42-.03-.03-.06-.07-.09-.08-.13-.07-.28-.05-.41.03-.08.05-.16.18-.15.26.01.11.17.25.23.37.04.09.05.19.07.29.02.09.04.2.09.26.03.04.09.05.14.09.03.03.06.08.09.09.08.05.29.03.37-.08.06-.08,0-.21,0-.32,0-.09.03-.17.03-.25,0-.08,0-.17-.02-.26Z"/>
    <path class="cls-1" d="m41.98,62c-.03-.05-.09-.07-.13-.11-.15-.12-.25-.28-.45-.36-.14-.05-.29-.02-.44-.01-.16,0-.32-.04-.48-.05-.17-.01-.36-.04-.53-.01-.14.02-.27-.01-.41-.01-.1,0-.19.03-.28.03-.07,0-.26-.02-.3-.1-.03-.06.03-.2.05-.26.01-.04.02-.1.04-.14.02-.05.06-.09.08-.15.05-.16.09-.34.17-.48.02-.04.02-.08.04-.11.03-.06,0-.05.04-.08.05-.04.19-.08.26-.1.01,0,.43-.13.56-.19.05-.02.11-.03.16-.05.02-.01.08-.03.1-.03.12-.04.31-.08.31-.13,0-.07.07-.16.05-.25-.01-.07-.08-.09-.14-.13-.02,0-.49.08-.6-.06-.02-.03-.13-.1-.18-.08,0,0-.01,0-.02.01,0,.02-.02.03-.04.04-.05.07-.08.18-.12.22-.03.02-.14.08-.17,0,0-.02.08-.18.1-.22,0,0,0,0,0,0,.01-.05.02-.11.05-.16,0-.02,0-.03,0-.04,0-.03.01-.06.03-.08,0,0,.01,0,.02-.01,0-.03,0-.05.01-.08,0,.01-.25-.25-.27-.26-.07-.05-.15-.06-.24-.07-.13-.02-.39-.11-.45.06-.04.11.03.25.05.36.02.09-.03.18-.04.27,0,.06,0,.12,0,.18,0,.04-.04.09-.06.13-.04.1-.08.2-.12.3,0,0,0,0,0,.01,0,.01,0,.02-.01.02,0,.02-.02.04-.04.06-.01.01-.03.02-.04.03-.04.02-.07.03-.11.05-.02.02-.04.03-.07.03-.02,0-.05.02-.08.03,0,0-.01,0-.02,0,0,0,0,0,0,0-.02.01-.04.01-.05.01,0,0-.01.01-.02.02-.02.01-.04.02-.06.03-.01,0-.02.01-.04.02-.28.07-.56.18-.83.27-.03,0-.05.02-.07.04-.05.04-.05.11-.04.17,0,.02.02.05.03.07,0,0,.02,0,.02,0,.02.04.05.07.07.11.07.08.17.14.24.18.06.03.15-.03.2-.06.11-.07.22-.12.34-.17.08-.03.15-.07.23-.12.06-.03.13-.11.2-.09.07.02.02.11.02.15,0,.02-.03.05-.04.07-.05.12-.09.25-.14.39-.05.15-.1.29-.13.47-.01.08-.06.16-.08.24-.07.23-.13.38-.23.57-.04.08-.04.19-.14.2-.06-.04-.03-.12-.07-.16-.04,0-.06,0-.1.03-.15.11-.29.33-.29.33,0,0,.06.47.2.72.11,0,.18.02.3.01.05-.01.08-.07.1-.08.09-.07.19-.1.26-.18.06-.07.11-.14.15-.22.05-.09.1-.17.17-.25.08-.08.11-.2.16-.3.04-.1.09-.19.13-.29.03-.06.06-.19.12-.22,0-.02.03-.04.04-.04.12.02.25.05.37.06.06,0,.12,0,.18,0,.05,0,.1,0,.16.01,0,0,.02-.01.02,0,.09.03.19,0,.29,0,.03,0,.06,0,.1,0,.03,0,.06,0,.08,0,.03,0,.07-.01.1,0,.12-.01.22,0,.32.05.12.06.05.11,0,.2-.17.17-.31.35-.52.5,0,.02,0,.03.01.05.02.04.29.01.39,0,.1,0,.39-.09.45-.11.06-.02.1-.02.16-.04.09-.02.48-.13.61-.15.14-.02.28-.05.35-.09.05-.03.17-.2.08-.36-.01-.03-.02-.05-.04-.09Z"/>
    <path class="cls-1" d="m28.59,62.21s-.29-.15-.33-.19c-.08-.06-.13-.08-.18-.1-.03-.02-.07-.03-.11-.05,0,0-.01,0-.02,0h-.04s-.03-.02-.05-.03c-.09-.07-.11-.27-.1-.33.01-.06.04-.11.08-.17.03-.05.07-.11.08-.16,0-.01.01-.04.04-.09.02-.05.05-.11.06-.14.02-.08-.01-.15-.05-.23-.02-.03-.03-.07-.04-.1-.02-.06-.05-.12-.08-.18-.02-.04-.04-.08-.06-.13-.03-.08-.05-.16-.06-.23,0-.05-.02-.09-.03-.13,0,0,0,0,0,0,0-.01-.02-.02-.02-.04-.04-.11-.09-.18-.19-.26-.02-.02-.05-.04-.08-.05,0,0-.02,0-.04,0-.02,0-.05.02-.09.02-.17.02-.32.23-.44.38-.04.06-.13.48-.17.68-.01.07-.03.13-.04.17,0,.04-.02.07-.04.11-.01.04-.03.07-.03.1-.02.11-.04.14-.09.2,0,.01-.02.02-.03.04-.01.01-.02.03-.02.04-.01.02-.03.06-.08.08-.04.02-.09.02-.15,0-.05-.01-.09-.04-.13-.06l-.06-.03v-.02c-.04-.07-.05-.29-.06-.71v-.04c0-.13-.07-.27-.18-.33-.08-.04-.23-.11-.32-.06-.05.03-.08.08-.11.12-.06.09-.12.18-.16.28-.11.27-.21.38-.43.57-.04.03-.06.04-.09.04,0,0-.02,0-.03,0-.03,0-.06.03-.07.05-.03.05-.04.12-.02.19,0,.03.02.06.03.09.01.05.03.09.04.15.02.12.08.2.15.3.03.05.07.11.11.17.03.05.07.08.11.12.02.02.04.03.06.05.03.02.04.05.06.07.01.02.03.04.03.04,0,0,.02,0,.04.01.04.02.09.04.13.03.03,0,.05-.02.08-.04,0,0,.02-.03.03-.04.02-.03.04-.07.06-.1,0,0,.02-.02.03-.04.08-.1.12-.16.15-.18.05-.04.1-.04.15-.04h.02s.1,0,.15,0c.14,0,.31.03.47.07.12.03.4.09.42.09.07.01.16.04.23.08.06.02.11.05.17.06.06.01.21.07.25.08h.02c.08.04.31.14.52.21.19.06.41.1.46.09.01,0,.04-.06.05-.09,0-.02.02-.03.02-.05.03-.09.11-.19.07-.29-.02-.02-.03-.04-.05-.06Z"/>
    <path class="cls-1" d="m29.93,61.71s-.01-.05-.02-.07c-.02-.05-.03-.1-.04-.19-.01-.14-.04-.16-.23-.33l-.04-.03s-.04-.04-.06-.06c-.02-.03-.04-.05-.06-.06-.01,0-.02-.01-.04-.02-.06-.02-.14.03-.2.12-.04.06-.05.13-.06.23,0,.04,0,.08-.01.12,0,.02,0,.04,0,.07,0,.03,0,.05,0,.08,0,.06-.04.16-.1.28-.02.05-.04.08-.06.14-.01.04-.08.14-.21.35-.03.05-.05.09-.06.1-.05.09-.05.26-.02.31.03.04.35.36.48.39,0,0,.01,0,.01,0,.08,0,.15-.02.21-.08l.02-.02s.08-.08.11-.12c.04-.06.08-.09.12-.13.06-.05.11-.09.13-.19.03-.15.11-.44.14-.52.02-.05.04-.14.05-.16,0-.06,0-.09-.02-.17v-.04Z"/>
    <path class="cls-1" d="m20.39,54.07c-.14-.11-.28-.07-.43-.12-.05.02-.1.09-.14.13-.01.18.05.2-.05.38-.07.13-.22.15-.31.26-.25-.08-.55-.22-.79-.46,0-.1.13-.22.12-.32-.06-.08-.07-.13-.12-.23-.08-.13-.17-.09-.25-.03-.12.1.06.39-.17.45-.13.03-.2.03-.34-.03-.14-.06-.27-.13-.43-.11-.12.01-.21.22-.22.31.01.03.03.05.06.07,0,.06.35.13.31.18-.05.09-.22.32-.22.35-.02.09-.06.19-.03.27,0,.01,0,.06,0,.08,0,.02-.02.05-.03.07.01.16.04.26.16.34-.04.2-.17.41-.41.33-.24-.08-.38.36-.59.3,0-.18.16-.35.33-.36.2,0,.27-.04.3-.22.03-.13-.16-.3-.03-.36.01,0,.16-.17.11-.34-.03-.1-.05-.23-.14-.3,0,0-.12-.14-.14-.2-.11-.04-.43-.01-.49,0-.03.19.01.24,0,.45-.01.11,0,.23-.13.33-.1-.05-.22-.04-.33-.05-.09-.02-.17-.07-.27-.09-.18-.03-.29-.2-.45-.12-.03.01-.1.25-.04.33.06.08.03.09.09.18.08.12.15.19.3.23.1.03.21.04.3.1-.12.16-.32.28-.51.37-.16.07-.43-.05-.52.09-.04.07-.06.13-.08.21,0,.06,0,.12,0,.18,0,.01-.02.08,0,.11.06.12.27.11.3.12.03,0,.12.02.13.02.09-.02.43-.11.47-.12.11-.05.25-.12.35-.07.11.06-.06.26.05.35.1.08.38-.02.39-.02.1-.02.19-.13.19-.23.09-.12.25-.21.4-.21.14,0,.5-.02.59.11-.05.04-.14.05-.2.11-.09-.01-.03-.12-.1-.12-.11,0-.17.12-.29.16-.12.04-.2.07-.34.14-.08.04-.15.08-.22.17.04.12.15.23.11.36.07.2.38.32.48.07,0-.03.08-.14.09-.15.1-.05.16-.23.26-.19-.02.01-.01.19.04.24.1.1.01.18-.09.25-.23.15-.31.17-.31.47-.11.11-.52-.13-.54,0,.13.06.26.13.4.18.03,0,.06.01.08.03.16.08.31.11.47.17.06.08.18.06.26.13.06.06.13.1.21.14.11.06.23.11.34.15.02.01.53-.25.42-.46-.13-.39-.58-.28-.84-.51-.07-.21.31-.34.45-.26.19.03.36-.11.54-.02.12.06.24.08.36.09.06,0,.18-.06.19-.06.03,0,.07-.03.09-.04.18-.07.11-.47.05-.64-.08-.23-.06-.29.16-.43.04-.1,0-.19.04-.29-.09-.16-.1-.24-.3-.31-.06.03-.12.03-.18.06-.04.06-.01.14-.05.19-.04.07-.12.11-.17.17-.11.12-.24.2-.35.33-.16.18-.59.52-.89.41-.05-.02-.13,0-.18-.07.15-.11.26-.14.42-.13.02.01.07.04.09.04.18.01.39-.04.47-.24.06-.15.04-.31,0-.46,0-.04-.05-.06-.09-.07-.15-.03-.34,0-.51-.08.1-.07.19-.07.31-.05.16.02.4.02.41-.2.01-.23-.11-.3-.26-.4.03-.18.61-.12.76-.15.12-.02.23.03.34.1.13.07.24.18.37.25.03,0,.14-.04.17-.04.17-.1.15-.38.15-.43,0-.04.02-.08.01-.1-.09-.16-.22-.09-.2-.21,0-.02.33-.09.38-.24.03-.09.01-.2-.01-.29.01-.16.03-.35-.11-.47Zm-1.21,3.09s.02.02.04,0c.02.05,0,.1-.04.15-.03,0-.06-.02-.09-.03,0-.05.06-.08.09-.13Zm-.76-1.84c-.12.08-.28.08-.41.15.05-.1.27-.3.33-.34.15-.11.15-.08.23.04.02.03.02.05.04.07-.05.03-.17.07-.19.09Z"/>
    <polygon class="cls-1" points="51.72 9.75 50.82 9.12 48.57 11.32 49.93 8.48 49.03 7.85 47.24 12.12 48.29 12.86 51.72 9.75"/>
    <rect class="cls-1" x="41.61" y="7.23" width="4.52" height="1.09" transform="translate(19.65 45.17) rotate(-67.12)"/>
    <path class="cls-1" d="m51.87,57.16c-.05-.03-.19-.09-.21-.12-.13-.05-.26.1-.41.19-.16.09-.31.17-.42.28-.07-.01-.13-.04-.2-.04-.09,0-.31,0-.35-.05-.02-.03-.04-.17-.04-.25,0-.07,0-.15.02-.21.05-.15.08-.23.19-.34,0-.13-.15-.21-.25-.23.02-.01.04-.02.05-.04.22-.26.44-.58.58-.9.06-.15.12-.25.19-.4,0-.02.03-.08.03-.1,0-.11-.06-.13-.13-.21-.05-.06-.17,0-.27,0-.16,0-.34,0-.5.05-.1.04-.13.17-.21.27-.05.06-.16.19-.23.12-.02-.03,0-.04,0-.08-.01-.05-.04-.11-.05-.16-.01-.05-.02-.11-.04-.16-.05-.18-.18-.32-.22-.5.02-.11-.02-.25-.04-.36-.01-.06,0-.14-.03-.19-.04-.06-.12-.05-.17-.06-.12-.04-.24-.12-.35-.11-.07,0-.12.01-.18.02-.22.09-.39.28-.47.51-.03.1-.02.19-.05.28-.03.12.13.14.21.13.07-.02.19-.07.29-.15.04-.07.06-.13.05-.2,0-.09-.02-.14.03-.2.03,0,.05,0,.07.01.05.2.19.35.29.54-.11-.05-.23-.09-.34-.05-.07.03-.1.12-.14.17-.05.06-.14-.05-.22-.06-.02,0-.01,0-.02,0-.08.04-.14.03-.22.07-.1,0-.12-.16-.17-.24-.04-.08-.03-.08-.04-.14-.01-.07-.05-.09-.02-.15.05-.1.2-.23.26-.36.01-.03.01-.05.03-.07.06-.09.19-.14.18-.24-.06-.04-.11-.08-.18-.09-.09-.01-.17,0-.24.02-.11.05-.2.17-.3.26-.04.01-.06-.04-.1-.05-.17-.02-.4-.09-.53.04-.08.07-.05.24.03.32.05.05.16.04.22.12.04.06.04.15.09.22.03.05.09.09.13.15.1.15.19.31.21.43-.06.08,0,.13.08.18.09,0,.15.1.24.07.07-.15.27-.1.35-.02.1.1.09.31.17.47.04.08.06.13.07.2,0,.07.04.11.06.17.01.03.03.06,0,.1-.06-.08-.11-.16-.16-.24-.01-.03-.03-.05-.04-.08-.03-.1-.08-.18-.13-.28,0-.07.05-.19-.04-.23-.03-.01-.07-.02-.11-.03-.02,0-.03.02-.05.02-.05,0-.08-.03-.11-.02-.06.03-.11.11-.11.18,0,.07.06.17.11.23.05.05.08.1.13.15.02.02.04.02.06.04.02.03.02.07.04.1.05.1.14.19.15.29.02.04.06.06.03.09-.31-.24-.56-.67-.8-1.03,0-.03,0-.05-.01-.08-.09-.12-.29-.28-.45-.26-.1.01-.15.11-.15.19,0,.07.04.12.08.18.03.09,0,.25.09.25.04,0,.07-.06.1-.05.07.14.17.25.27.35.09.1.16.21.24.31.13.15.31.25.41.45-.03.05-.05.1-.11.14-.07-.07-.11-.16-.17-.23-.03-.03-.06-.06-.08-.09-.02-.02-.03-.04-.05-.06-.03-.04-.08-.06-.12-.1-.05-.04-.08-.09-.13-.16-.02-.03-.05-.05-.07-.08-.02-.03-.05-.06-.07-.1-.06-.09-.16-.14-.16-.24-.07-.05-.27-.06-.39-.03-.02,0-.05.03-.07.06-.03.04,0,.08,0,.13,0,.04-.04.07-.03.1.02.06.06.08.1.14,0,.01.05.07.05.08.02.03.08.08.1.11.02.03.03.04.05.05.03.02.08.02.12.05.09.06.16.09.21.15.22.23.33.3.46.5-.09.11-.27.26-.15.34.02.02.06.02.08.03.07-.03.13-.02.2-.02.11,0,.19.02.29-.05.07-.06.09-.2.15-.27.02-.02.11-.12.14-.16.02-.02.14-.2.17-.25.06-.09.36-.28.39-.3.04-.03.08-.1.13-.14.06-.06.12-.13.2-.17.14-.08.47-.37.68-.45.15.01.06.16.03.23-.05.1-.1.2-.13.29-.02.06-.05.14-.1.22-.01.02-.04.03-.06.06-.02.03-.02.06-.04.09-.02.02-.06.04-.1.07-.08.07-.14.15-.23.2-.07.04-.15.12-.19.19-.09.15-.2.28-.24.49-.03.17-.12.19-.11.37.03.11.16.14.2.21.1.04.12-.04.17-.14.04-.07.07-.15.09-.21.03-.08.04-.13.09-.21.04-.07.16-.24.26-.15.03.13.11.26.1.38-.04.05-.09.11-.07.16.03.06.13.06.19.1.03.02.04.04.07.06.04.03.12,0,.15.07.02.05-.07.15-.11.2-.06.07-.12.15-.17.23-.03.04-.07.07-.09.11-.01.02,0,.05-.02.08-.03.05-.08.08-.08.13,0,.04.05.14.07.17.13.19.08.42.29.49.06.02.1,0,.17,0,.05,0,.08.02.12.01.02,0,.14-.02.18-.03.03,0,.13-.01.15-.01.08,0,.33-.32.33-.33.1-.21.22-.38.26-.63.01,0-.04-.29-.05-.42,0-.09.04-.1.11-.14.12-.07.24-.19.35-.23.02-.01.08-.04.11-.05.07-.02.12-.02.17-.02.05,0,.09.04.12.02.09-.04.11-.13.12-.19.02-.16-.21-.18-.29-.24Zm-2.77-2.53c.01.09.08.16.06.26,0,0-.02.01-.03.02-.02-.02-.05-.02-.07-.06.05-.07-.01-.15.04-.22Zm-.12,1.09c-.16-.18-.23-.41-.27-.66,0-.07,0-.22.09-.17.12.07.07.22.06.33.02.09.11.15.19.2.07-.05.13-.04.19-.05.02.03.05.04.07.08-.13.1-.21.2-.34.27Zm1.6,3.09c-.03.06-.11.18-.19.22-.05.03-.18.03-.24.03-.08,0-.13-.07-.18-.17.04-.05.04-.15.09-.22.03-.03.08-.06.11-.1.02-.02.03-.06.06-.08.03-.03.09-.05.13-.09.04-.03.07-.09.1-.1.05-.02.13,0,.15.05.02.03,0,.04,0,.08,0,.14.03.25-.03.39Z"/>
    <path class="cls-1" d="m5.3,25.21s.04.02.06.03c.02.01.04.02.07.03,0,0,0,0,.01,0,0,0,0,0,0,.01,0,0,.02,0,.02,0,0,0,0,.01.01.01.34.11.63.12.89.01.25-.1.49-.23.68-.39.07-.05.14-.1.2-.15.06-.05.12-.1.18-.14.13-.1.25-.17.37-.23.12-.05.24-.05.36-.01.12.04.21.11.25.19.05.08.07.17.06.25,0,.01,0,.02,0,.03,0,0-.01.02-.01.03,0,0,0,0,0,0h0c-.04.1-.12.17-.24.21-.12.04-.28.03-.48-.03-.01,0-.03-.01-.04-.02-.02,0-.03-.02-.05-.03,0,0-.02,0-.03,0,0,0-.02-.01-.03-.02,0,0-.02,0-.03,0,0,0-.02,0-.03,0l-.32.94s.03,0,.05.01c.02,0,.03.01.04.02.01,0,.02,0,.03,0,0,0,.02,0,.03,0,.02,0,.04.02.06.02.02.01.04.02.06.02.41.14.76.15,1.05.04.29-.12.51-.36.65-.71l.04-.14c.12-.36.14-.71.05-1.04-.09-.34-.39-.59-.9-.76l-.11-.04c-.34-.1-.63-.1-.87,0-.24.1-.45.23-.63.39-.05.05-.11.1-.16.14-.05.04-.1.09-.15.13-.13.11-.25.19-.37.25-.12.06-.24.07-.38.02-.09-.03-.16-.09-.19-.17-.04-.08-.05-.16-.03-.24,0,0,0-.01,0-.01,0,0,0,0,0-.01,0-.01,0-.02.02-.04,0-.01.02-.03.02-.04.04-.07.12-.11.22-.14.1-.04.23-.02.38.03l.12.04.32-.94-.09-.03c-.45-.16-.83-.14-1.13.05-.3.19-.51.46-.63.81-.12.35-.11.67.02.96.13.29.32.51.56.63Z"/>
    <polygon class="cls-1" points="20.47 11.32 19.12 9.19 21.1 10.97 22.07 10.43 19.87 6.48 18.94 6.99 20.34 9.21 18.31 7.34 17.36 7.87 19.56 11.83 20.47 11.32"/>
    <polygon class="cls-1" points="37.7 5.74 38.09 8.37 39.18 8.58 40 4.12 38.95 3.93 38.62 6.53 38.24 3.8 37.17 3.61 36.35 8.05 37.38 8.24 37.7 5.74"/>
    <polygon class="cls-1" points="11.58 19.97 10.02 18.96 10.41 18.36 11.97 19.37 12.57 18.43 8.77 15.99 8.17 16.92 9.61 17.85 9.22 18.46 7.78 17.52 7.18 18.45 10.99 20.89 11.58 19.97"/>
    <path class="cls-1" d="m30.46,7.82c.27.18.66.25,1.17.22.42-.03.75-.15.99-.36.24-.22.34-.6.3-1.14l-.2-3.19-1.11.07.21,3.39c0,.13-.02.24-.08.31-.06.08-.14.12-.21.13,0,.01-.01.01-.02.01-.01,0-.02,0-.03,0h-.01s0,0,0,0c-.08,0-.16-.03-.23-.1-.07-.07-.11-.15-.12-.27l-.21-3.43-1.09.07.21,3.34c.03.45.18.76.45.95Z"/>
    <path class="cls-1" d="m15.35,15.24l-.51-.75.59-.56.72.56.81-.76-3.84-2.6-.91.85,2.34,4.01.79-.74Zm-2.16-3.08l1.57,1.27-.42.4-1.15-1.67Z"/>
    <path class="cls-1" d="m36.57,48.46c0-.39-.13-.7-.39-.96-.26-.25-.64-.38-1.15-.38-.26,0-.48.04-.67.12-.19.08-.34.2-.45.36s-.19.32-.22.49c-.03.17-.04.39-.04.68v.19h1.14v-.49c0-.23.02-.38.07-.45.05-.08.12-.11.22-.11s.17.03.22.1c.05.07.07.17.07.31,0,.18-.08.43-.24.76s-.65,1.17-1.48,2.53v.73s2.81,0,2.81,0v-.87h-1.4c.72-1.06,1.15-1.75,1.29-2.08s.22-.64.22-.93Z"/>
    <path class="cls-1" d="m56.67,33.35h.19s-.05,0-.05,0h-.14.19c-.02-5.49-1.96-10.84-5.47-15.07-3.45-4.16-8.31-7.02-13.7-8.04-1.41-.27-2.85-.4-4.3-.4-4.1,0-8.16,1.07-11.73,3.11-4.62,2.62-8.26,6.85-10.25,11.91-2.02,5.12-2.1,11.1-.23,16.39,1.77,5.01,5.29,9.35,9.92,12.2,3.63,2.24,7.88,3.42,12.28,3.42,1.22,0,2.44-.09,3.65-.27,5.32-.81,10.28-3.53,13.95-7.66,3.78-4.25,5.87-9.77,5.89-15.56h-.19Zm-23.28,22.45c-12.39,0-22.44-10.05-22.44-22.44s10.05-22.44,22.44-22.44,22.44,10.05,22.44,22.44-10.05,22.44-22.44,22.44Z"/>
    <polygon class="cls-1" points="33.65 29.39 33.65 44.18 46.46 36.79 46.46 22 33.65 29.39"/>
    <path class="cls-1" d="m40.06,48.46c0-.39-.13-.7-.39-.96-.26-.25-.64-.38-1.15-.38-.26,0-.48.04-.67.12-.19.08-.34.2-.45.36s-.19.32-.22.49c-.03.17-.04.39-.04.68v.19h1.14v-.49c0-.23.02-.38.07-.45.05-.08.12-.11.22-.11s.17.03.22.1c.05.07.07.17.07.31,0,.18-.08.43-.24.76s-.65,1.17-1.48,2.53v.73s2.81,0,2.81,0v-.87h-1.4c.72-1.06,1.15-1.75,1.29-2.08s.22-.64.22-.93Z"/>
    <polygon class="cls-1" points="61.87 37.78 58.3 37.15 58.11 38.24 61.68 38.87 61.54 39.66 62.43 39.81 62.91 37.1 62.02 36.94 61.87 37.78"/>
    <polygon class="cls-1" points="56.7 42.94 56.25 43.95 58.08 44.76 59.94 46.79 60.37 45.83 59.3 44.73 60.83 44.78 61.28 43.78 58.53 43.76 56.7 42.94"/>
    <path class="cls-1" d="m51.97,5.61C42.66-.69,30.51-1.7,20.2,2.67,10.15,6.93,2.71,16.24.61,26.93c-2.15,10.98,1.47,22.5,9.45,30.32,8,7.84,19.65,11.08,30.57,8.71,10.7-2.32,19.66-10.08,23.77-20.18,1.6-3.94,2.38-8.19,2.39-12.43-.03-11.09-5.63-21.54-14.81-27.74Zm13.52,27.74c-.03,11.08-5.84,21.49-15.26,27.33-9.53,5.91-21.81,6.3-31.73,1.12C8.76,56.72,2.19,46.71,1.37,35.76.53,24.68,5.65,13.76,14.66,7.27,23.74.73,35.96-.57,46.22,3.92c10.07,4.39,17.26,13.85,18.93,24.68.24,1.58.34,3.17.34,4.76Z"/>
    <polygon class="cls-1" points="51.53 15.68 53.18 17.58 53.86 16.99 52.92 15.91 53.64 15.28 54.52 16.29 55.24 15.67 54.36 14.65 55.02 14.09 55.96 15.17 56.6 14.61 54.94 12.71 51.53 15.68"/>
    <path class="cls-1" d="m59.66,26.5c-.02.08-.05.15-.08.22-.05.15-.12.28-.19.38-.07.11-.17.18-.3.21-.12.03-.23.02-.32-.02-.09-.05-.15-.11-.19-.18,0,0,0-.02-.01-.03,0,0,0-.02,0-.03h0v-.02c-.02-.1.01-.2.09-.3.08-.1.22-.18.42-.23.02,0,.03,0,.05,0,.02,0,.04,0,.06,0,0,0,.02,0,.03,0,.01,0,.02,0,.03,0,0,0,.02,0,.03,0,0,0,.02,0,.03,0l-.23-.96s-.03,0-.04,0c-.02,0-.03,0-.05,0,0,0-.02,0-.03,0-.01,0-.02,0-.03,0-.02,0-.04.01-.06.01-.03,0-.05,0-.07.01-.42.1-.72.28-.9.54-.18.25-.23.57-.17.95l.04.14c.09.37.26.67.52.9.26.24.65.29,1.17.16l.11-.03c.34-.1.58-.25.73-.47.15-.21.26-.43.33-.67.02-.07.04-.14.06-.21.02-.07.04-.13.06-.2.05-.15.1-.29.17-.41.07-.11.17-.19.31-.22.09-.03.18,0,.25.04.08.05.13.11.15.18,0,0,0,.01,0,.01,0,0,0,0,0,.01,0,.01,0,.03,0,.04,0,.02,0,.03,0,.05,0,.08-.04.16-.11.24-.06.08-.18.14-.33.18l-.12.03.23.97.09-.02c.47-.12.77-.33.93-.66.15-.32.18-.66.09-1.02-.08-.36-.26-.62-.53-.8-.27-.18-.54-.26-.81-.23-.02,0-.04,0-.07.01-.02,0-.04,0-.06.01h-.03s-.02,0-.02,0h-.02c-.34.09-.59.24-.75.46-.16.22-.28.46-.37.7-.03.08-.06.15-.08.23Z"/>
    <rect class="cls-1" x="58.57" y="31.85" width="4.53" height="1.1" transform="translate(-.93 1.82) rotate(-1.7)"/>
    <path class="cls-1" d="m55.58,21.29l1.57-.81.12.22c.07.15.09.26.05.35-.04.08-.12.16-.26.23l-.84.43c-.15.07-.23.14-.25.2-.02.06,0,.14.07.27l.44.86.13-.07s-.01-.09.02-.15c.03-.06.12-.14.27-.21l.96-.55c.13-.06.21-.16.26-.29.04-.13.04-.28,0-.45.18.14.38.21.59.21.21,0,.44-.08.7-.21.35-.21.55-.45.6-.74.05-.29,0-.6-.18-.93l-.73-1.41-4.02,2.08.5.97Zm3.35-1.73c.08.15.12.29.14.41.02.12-.08.26-.3.42l-.12.06c-.17.09-.32.11-.43.07-.12-.03-.2-.1-.25-.2l-.11-.23,1.07-.55Z"/>
    <polygon class="cls-1" points="54.24 50.38 53.8 51.14 54.24 51.9 55.11 51.9 55.55 51.14 55.11 50.38 54.24 50.38"/>
    <path class="cls-1" d="m32.87,47.63c-.11-.14-.27-.26-.5-.36-.22-.1-.47-.15-.75-.15-.34,0-.63.07-.88.21s-.4.33-.48.56c-.08.23-.12.58-.12,1.05v1.78c0,.36.03.62.08.79.05.17.14.32.26.47s.28.26.48.33c.2.07.46.11.76.11.23,0,.44-.03.63-.1s.35-.18.48-.33c.13-.15.22-.32.26-.5s.06-.46.06-.85v-1.7c0-.39-.02-.67-.06-.85-.04-.18-.11-.34-.22-.48Zm-.99,3.42c0,.25-.01.41-.04.48-.03.07-.09.11-.19.11s-.16-.03-.18-.09c-.03-.06-.04-.24-.04-.54v-2.49c0-.26.02-.43.05-.5.03-.07.09-.11.19-.11s.16.03.18.1c.03.07.04.24.04.51v2.53Z"/>
    <polygon class="cls-1" points="33.35 14.14 20.54 21.53 33.35 28.93 46.15 21.53 33.35 14.14"/>
    <polygon class="cls-1" points="33.04 29.39 20.24 22 20.24 36.79 33.04 44.18 33.04 29.39"/>
    <path class="cls-1" d="m29.51,48.46c0-.39-.13-.7-.39-.96-.26-.25-.64-.38-1.15-.38-.26,0-.48.04-.67.12-.19.08-.34.2-.45.36-.12.16-.19.32-.22.49-.03.17-.04.39-.04.68v.19h1.14v-.49c0-.23.02-.38.07-.45.05-.08.12-.11.22-.11s.17.03.22.1c.05.07.07.17.07.31,0,.18-.08.43-.24.76s-.65,1.17-1.48,2.53v.73s2.81,0,2.81,0v-.87h-1.4c.72-1.06,1.15-1.75,1.29-2.08.15-.33.22-.64.22-.93Z"/>
    <path class="cls-1" d="m100.36,20.35c-.07-.05-.47-.09-.55-.13-.14-.04-.22-.05-.3-.06-.05,0-.11-.01-.17-.03-.01,0-.02,0-.03,0h-.05s-.05,0-.08,0c-.16-.05-.27-.33-.28-.43-.01-.09.01-.18.04-.28.02-.09.05-.18.05-.26,0-.02,0-.06.01-.14,0-.07.02-.18.02-.22,0-.13-.08-.21-.16-.3-.04-.04-.08-.08-.11-.13-.06-.08-.12-.14-.19-.21-.05-.05-.1-.1-.14-.15-.08-.09-.14-.2-.19-.3-.03-.06-.06-.12-.1-.17,0,0,0,0,0,0-.01-.01-.03-.03-.05-.05-.11-.13-.21-.21-.38-.29-.04-.02-.09-.03-.13-.03-.01,0-.02,0-.05.03-.03.02-.06.05-.11.07-.23.1-.36.46-.46.72-.03.1.02.73.05,1.04,0,.1.02.19.02.26,0,.06,0,.11,0,.17,0,.06-.01.11,0,.15.02.16,0,.21-.04.32,0,.02-.02.04-.03.07-.01.03-.01.04-.01.06,0,.04-.01.1-.08.15-.06.04-.13.06-.21.06-.07,0-.14-.01-.21-.03l-.1-.02-.02-.03c-.07-.09-.19-.39-.37-.98l-.02-.05c-.06-.18-.21-.35-.4-.39-.13-.03-.37-.06-.47.06-.05.06-.08.14-.1.22-.04.15-.09.3-.1.46-.03.43-.14.63-.36.99-.04.06-.06.08-.11.1,0,0-.02,0-.04.02-.05.02-.07.07-.08.11-.02.09,0,.19.05.28.02.04.05.08.07.11.04.06.08.12.13.2.08.15.2.25.34.36.07.06.15.12.23.2.06.06.13.09.21.13.03.02.07.03.1.05.05.02.08.05.11.08.02.02.05.04.06.04.01,0,.03,0,.06,0,.07,0,.14.01.19-.01.04-.02.07-.05.09-.09,0,0,.01-.05.02-.07,0-.05.02-.11.05-.17,0-.01.02-.04.03-.08.07-.18.1-.27.13-.31.06-.08.13-.1.2-.13h.03c.07-.03.14-.06.21-.08.2-.05.46-.09.69-.1.18-.01.6-.05.63-.05.1-.01.24,0,.36,0,.09,0,.18.02.27.01.09,0,.33,0,.39.01h.04c.12.02.49.06.83.06.29,0,.62-.03.69-.06.01-.02.02-.1.03-.14,0-.03,0-.05.01-.08,0-.14.08-.31-.02-.44-.03-.02-.07-.04-.1-.06"/>
    <path class="cls-1" d="m102.17,19.35c-.02-.09-.04-.13-.1-.23l-.03-.05s-.04-.06-.06-.09c-.04-.06-.09-.13-.13-.25-.07-.19-.13-.21-.47-.36l-.06-.03s-.07-.04-.11-.06c-.04-.03-.08-.05-.12-.06-.02,0-.04-.01-.06-.01-.1,0-.19.1-.24.26-.03.11-.01.2.02.36.01.05.02.11.03.18,0,.03.01.07.02.1,0,.04.01.08.02.12.02.09,0,.24-.03.44-.02.07-.03.13-.03.22,0,.06-.05.24-.14.58-.02.08-.04.15-.04.16-.03.14.04.39.11.44.06.05.65.35.85.35.01,0,.02,0,.02,0,.12-.04.2-.1.26-.21l.02-.03c.04-.07.08-.15.1-.22.03-.1.07-.17.11-.23.06-.1.11-.18.1-.33-.02-.23-.03-.66-.03-.79,0-.08,0-.21,0-.25"/>
    <path class="cls-2" d="m117.04,17.62c.27,0,.5.12.62.33.03.05.03.13.06.2.08.25.21.57.12.91-.04.15-.12.29-.2.4-.08.11-.19.2-.27.33-.1.16-.14.39-.3.45-.2.08-.52-.08-.59-.22-.02-.05-.02-.14-.04-.21-.03-.11-.12-.17-.13-.26-.01-.13.07-.31.11-.45.06-.17.14-.31.16-.48.02-.24-.07-.58,0-.74.06-.14.29-.25.45-.24"/>
    <path class="cls-2" d="m121.89,12.86c.13.02.25.08.37.18.1.09.13.19.18.3-.08.16-.31.11-.48.19-.04.02-.06.06-.1.08-.21.13-.53.18-.7.28-.1.06-.07.11-.11.23-.04.1-.06.08-.07.24-.01.15-.13.4.02.5.15.01.24.08.38.09.01.01.01-.01.04.01.11.09.13.31.26.28.11-.03.23-.15.36-.12.19.04.32.21.43.38.03-.36-.03-.7.07-1.04-.03-.04-.05-.08-.09-.09-.13.03-.16.13-.23.26-.06.1-.13.17-.25.23-.21.02-.42-.02-.54-.05-.11-.06-.33-.24-.17-.37.12-.11.18-.25.32-.37.31-.25.73-.36,1.13-.3.1.04.17.08.28.14.16.08.25.31.39.47.07.07.18.12.19.24,0,.1-.1.2-.13.29-.07.18-.14.42-.27.56-.1.29-.04.61-.13.91-.03.09-.07.17-.1.26-.03.09-.04.2-.07.28-.02.06-.08.06-.06.12.03.15.31.07.43.03.2-.07.36-.22.54-.19.27.06.53.24.76.37.14.08.37.1.39.24.02.18.09.27-.01.42-.01.03-.11.09-.13.11-.22.15-.4.24-.62.4-.48.34-1.09.6-1.64.77-.03.01-.07,0-.11,0,.12.12.27.37.15.56-.25.05-.38.14-.58.31-.07.06-.15.18-.22.28-.07.12-.17.34-.17.4.01.13.34.32.46.39.1.07.17.16.26.24.25-.05.55-.03.85-.01.31.02.62-.09.76.11,0,.06.15.27.19.36.06.15.38.38.2.6-.07.09-.18.2-.35.17-.07-.01-.09-.09-.16-.14-.07-.04-.14-.08-.26-.13-.05-.01-.16-.02-.2-.03-.19-.03-.48.03-.71.02-.14,0-.21-.03-.29.1-.1.19-.28.64-.31.64-.27.31-.61.45-.93.66-.02.02-.65.26-.77.18-.03-.02-.17-.1-.23-.12-.06-.02-.25-.11-.28-.12-.06-.03-.09-.08-.16-.13-.09-.06-.17-.06-.24-.14-.23-.29.05-.57.04-.96,0-.06.03-.25.06-.3.04-.08.15-.07.23-.11.04-.03.06-.07.1-.1.07-.04.16-.04.23-.07.16-.07.31-.12.45-.17.1-.04.32-.1.33-.19.02-.12-.11-.17-.15-.24-.03-.05-.02-.1-.04-.14-.05-.11-.19-.2-.18-.31.01-.1.14-.13.24-.17.12-.16.14-.42.2-.63-.07-.22-.39-.08-.51-.01-.15.08-.2.13-.32.22-.08.06-.21.16-.32.22-.16.08-.27.19-.37.04,0-.14-.15-.28-.09-.47.15-.25.3-.21.49-.42.24-.27.51-.35.78-.48.13-.06.31-.11.45-.1.17.02.33-.04.51-.07.07-.01.14,0,.2,0,.05-.01.08-.06.14-.08.05-.02.11-.01.14-.03.13-.06.24-.15.33-.22.12-.1.28-.19.45-.29.12-.07.38-.21.17-.36-.37-.07-1.1.05-1.37.03-.14,0-.28.03-.43.07-.11.02-.22.08-.31.09-.07,0-.66,0-.82.08-.09.04-.42.18-.47.2-.08.03-.31.09-.35.1-.15.04-.3.23-.46.24-.19.02-.3-.08-.46-.18-.09-.06-.18-.13-.3-.15-.04-.04-.08-.07-.1-.11-.09-.22.31-.27.52-.34,0-.41-.11-.6-.21-1.14-.02-.12-.09-.23-.17-.4-.04-.08-.11-.12-.12-.18-.01-.03-.02-.06-.03-.12,0-.05-.04-.17-.04-.24,0-.03,0-.14,0-.16-.01-.12-.05-.18-.02-.28.02-.06.09-.07.13-.12.05-.07.03-.16.11-.19.07-.02.12-.03.16-.02.21.06.49.26.54.39-.08.14,0,.31,0,.49,0,.07.01.13.01.2,0,.06.03.12.03.17,0,.13,0,.23.04.34.03.08.07.16.09.24,0,.05,0,.09.01.14,0,.07.02.13.04.2.03.15,0,.32.04.48.12,0,.2-.06.29-.1.03-.36-.14-.67-.18-1-.03-.21-.02-.43-.06-.65-.05-.23-.1-.48-.07-.75-.03-.04-.13.02-.18-.02-.12-.08.07-.28.1-.44,0-.13-.02-.22.04-.33.07-.12.23-.21.39-.14.25.11.39.52.4.77,0,.06-.04.08-.05.12.02.73-.03,1.58.2,2.19.07-.02.03-.08.03-.16.08-.16.03-.36.05-.55,0-.05.04-.11.03-.17,0-.04-.04-.07-.04-.11-.02-.11-.03-.22-.05-.33-.02-.12,0-.32.05-.42.06-.1.19-.18.31-.16.05,0,.06.09.13.13.03.02.07,0,.09.02.06.04.1.09.13.14.1.13-.08.25-.15.36,0,.19-.02.36-.06.53-.01.05,0,.1,0,.15,0,.16,0,.33.01.49.07-.03.06-.09.08-.14.02-.1.01-.18.07-.29.05-.1.07-.19.08-.34.03-.3.23-.59.18-.83-.04-.18-.29-.43-.52-.29-.16-.04-.15-.25-.29-.32-.07-.14-.1-.27.05-.33.08-.19.1-.49.09-.8,0-.12-.06-.22-.05-.32,0-.15.09-.28.08-.4-.02-.17-.18-.25-.21-.37-.05-.2.07-.46.25-.49.3-.06.56.23.79.42.05.04.03.14.1.15.22-.03.47-.12.67-.1m.31,3.14c0,.07.03.09.04.14.02,0,.04,0,.05,0,.12-.12.09-.29.16-.42-.13.05-.12.24-.25.28m-.69-.01c-.17.38-.28.78-.21,1.18.24.02.46-.05.73-.08,0-.06-.02-.11-.03-.17-.1-.04-.17-.12-.32-.11-.08-.14-.14-.31-.09-.46.1-.15.31-.32.21-.53-.07-.15-.23.06-.28.16m-1.56,7.01c.09.06.28.17.37.17.15,0,.37-.09.47-.14.22-.14.27-.32.39-.52.03-.06.07-.07.07-.12,0-.08-.09-.19-.18-.2-.06,0-.15.05-.24.06-.09.01-.19,0-.26.01-.05.01-.1.05-.15.07-.08.03-.18.02-.25.05-.14.05-.23.2-.33.23-.02.19-.01.32.1.4"/>
    <path class="cls-2" d="m113.09,21.43c0-.06-.01-.09-.03-.15-.02-.09-.12-.13-.16-.22-.2-.23-.29-.51-.58-.7-.2-.13-.44-.13-.67-.17-.25-.04-.48-.16-.72-.24-.25-.08-.54-.18-.81-.2-.23-.02-.41-.11-.63-.16-.15-.03-.3-.01-.45-.04-.11-.02-.4-.12-.43-.26-.02-.1.11-.3.16-.38.04-.06.07-.15.11-.2.04-.07.13-.12.17-.2.14-.23.26-.49.42-.69.04-.05.06-.11.1-.16.06-.08.02-.07.08-.11.09-.04.31-.05.44-.07.02,0,.7-.06.93-.09.08-.01.17,0,.25-.02.04,0,.13-.02.16-.02.2-.02.5-.01.51-.09.03-.1.16-.22.16-.36,0-.11-.08-.17-.17-.24-.04,0-.77-.04-.9-.3-.03-.05-.17-.19-.25-.19-.01,0-.02,0-.03,0-.02.02-.05.04-.08.05-.1.09-.18.25-.26.29-.05.03-.24.07-.26-.05,0-.03.18-.26.23-.31,0,0,0,0,0,0,.04-.07.08-.16.13-.23,0-.02.01-.05.03-.06.01-.04.04-.08.08-.11,0,0,.02-.01.03-.02.02-.04.03-.08.05-.12,0,.01-.3-.46-.32-.48-.09-.09-.22-.14-.34-.18-.2-.07-.56-.31-.71-.06-.09.16-.05.39-.05.57,0,.14-.11.27-.16.4-.03.09-.03.19-.07.27-.03.06-.09.12-.13.18-.09.14-.2.28-.29.42,0,0,0,.01-.01.02-.01.01-.02.03-.03.03-.02.03-.05.06-.08.07-.02.02-.05.02-.07.03-.06.02-.13.03-.19.03-.03.02-.07.03-.11.02-.04,0-.08.01-.13.02,0,0-.02,0-.03,0,0,0,0,0,0,0-.03.01-.06,0-.09,0-.01,0-.02.01-.03.02-.03.01-.07.02-.1.03-.02,0-.04.01-.06.01-.45,0-.92.08-1.37.13-.04,0-.09,0-.13.03-.09.04-.12.15-.12.25,0,.04,0,.08.02.12.01,0,.02,0,.03.02.02.07.05.13.07.2.09.14.21.28.31.37.08.07.23,0,.33-.03.2-.06.38-.11.58-.15.13-.03.26-.06.39-.1.1-.03.23-.13.34-.07.1.06,0,.17-.03.24,0,.03-.06.07-.08.09-.11.17-.22.36-.34.56-.13.21-.24.41-.35.68-.05.12-.15.22-.21.34-.18.33-.34.54-.55.79-.08.1-.12.28-.29.26-.08-.08,0-.19-.06-.27-.06-.02-.09-.02-.16.02-.27.11-.56.41-.56.41,0,0-.07.74.06,1.17.17.02.27.09.45.12.08,0,.15-.07.18-.09.16-.07.32-.09.47-.19.12-.08.21-.18.31-.28.11-.12.21-.23.34-.32.15-.1.24-.27.34-.41.1-.13.2-.26.3-.4.06-.08.15-.26.26-.3.01-.02.05-.05.08-.04.18.07.36.16.55.22.09.02.18.04.27.07.08.02.16.05.24.07.01,0,.03-.01.04,0,.13.08.29.07.44.11.05.01.1.03.14.04.05,0,.09.02.12.04.05,0,.1,0,.16.03.2.02.34.07.47.18.16.14.04.19-.07.31-.32.2-.59.44-.97.58,0,.03,0,.05,0,.08.01.07.44.12.59.14.16.02.63,0,.73-.02.09-.01.16,0,.25,0,.14,0,.78-.04.98-.02.22.02.44.02.57-.03.09-.03.33-.24.24-.53Z"/>
    <path class="cls-2" d="m86.35,23.55s.01,0,.02,0c0,0,0,0,0,0h-.02Z"/>
    <path class="cls-1" d="m89.38,19.73c.27-.16.36-.53.69-.6.23-.05.39-.15.57-.27.08-.05.17-.26.18-.28.03-.04.06-.12.08-.14.16-.28-.35-.73-.61-.89-.35-.21-.39-.32-.25-.73-.05-.18-.2-.25-.25-.42-.29-.12-.38-.21-.73-.09-.05.1-.12.17-.17.27.01.11.13.19.14.31.02.13-.03.27-.04.4,0,.27-.1.51-.11.8,0,.41-.21,1.3-.73,1.49-.09.03-.17.14-.3.1.08-.31.19-.46.42-.62.04,0,.13-.02.16-.05.24-.18.47-.46.35-.81-.09-.26-.27-.44-.5-.6-.05-.04-.13-.03-.19,0-.23.12-.44.37-.75.44.05-.2.18-.29.35-.4.22-.14.54-.4.31-.7-.24-.32-.46-.28-.77-.24-.15-.27.66-.81.83-1.01.13-.16.33-.2.54-.23.25-.04.51-.02.76-.07.05-.03.14-.2.18-.23.12-.31-.21-.66-.25-.72-.04-.05-.06-.12-.09-.15-.29-.1-.38.11-.49-.06-.01-.02.33-.47.23-.71-.06-.15-.19-.27-.32-.36-.16-.23-.34-.5-.65-.5-.3,0-.44.21-.69.31-.04.08-.03.22-.05.32.17.25.27.21.34.54.05.25-.13.43-.13.67-.42.17-.96.3-1.53.25-.1-.14-.06-.43-.18-.55-.15-.04-.22-.1-.41-.17-.24-.09-.31.06-.35.23-.06.26.49.45.26.76-.14.18-.23.25-.48.32-.25.07-.48.12-.68.31-.14.14-.04.5.05.64.04.02.1.03.15.04.07.08.59-.2.61-.1.02.17.04.65.09.69.07.15.12.3.25.39,0,.02.07.07.08.11.01.04.02.08.03.12.18.2.33.29.57.27.16.3.22.71-.19.87-.39.15-.12.87-.46,1.02-.2-.22-.17-.63.06-.82.26-.21.3-.33.16-.61-.1-.19-.52-.22-.42-.44.01-.02.03-.39-.22-.56-.14-.1-.31-.24-.49-.24,0-.01-.31-.06-.39-.11-.18.06-.58.45-.63.53.16.27.27.3.47.59.1.16.23.31.18.57-.19.04-.33.19-.49.28-.14.08-.3.09-.44.17-.27.15-.58.05-.72.32-.02.05.14.43.3.47.16.04.13.09.31.14.23.07.4.08.64-.02.16-.07.32-.17.49-.19.02.34-.12.71-.27,1.02-.13.27-.62.4-.58.67.02.13.06.24.12.35.07.07.14.15.2.23.01.01.07.13.1.14.2.09.47-.14.52-.16.05-.02.18-.1.19-.12.1-.12.45-.6.48-.66.1-.19.2-.42.39-.46.21-.05.2.41.44.41.21,0,.47-.42.49-.44.1-.13.11-.37,0-.5,0-.26.11-.54.3-.71.18-.16.63-.56.89-.48-.02.11-.12.22-.14.35-.13.08-.17-.12-.26-.06-.15.11-.09.34-.21.53-.11.17-.18.3-.3.54-.07.14-.11.27-.11.46.18.11.45.14.53.35.31.18.84.01.71-.42-.02-.04-.05-.26-.05-.3.07-.17-.03-.47.14-.53,0,.04.18.26.31.27.24.03.21.22.15.42-.14.45-.23.55.11.95-.03.26-.82.38-.71.59.24-.06.48-.11.72-.19.05-.02.09-.04.14-.05.3-.07.52-.19.8-.29.16.04.3-.12.48-.11.15.01.28-.02.42-.04.2-.03.42-.1.61-.16.04,0,.43-.89.06-1.05-.58-.38-1.05.25-1.65.23-.32-.2.04-.77.31-.82Zm.33-1.75s.05,0,.06-.03c.08.04.1.13.11.24-.05.02-.11.04-.15.07-.05-.07,0-.17-.02-.28Zm-2.96-1.6c-.07.23-.28.39-.38.63-.04-.19.04-.68.07-.8.07-.31.11-.26.34-.19.05.02.08.03.12.05-.04.1-.14.28-.15.32Z"/>
    <path class="cls-1" d="m84.76,22.63s-.3.08-.32.09c-.12-.02-.37.08-.51.1-.15.02-.25-.01-.38.05-.08.04-.26.12-.34.09-.03,0-.08-.03-.11-.03-.29-.02-.19.31-.11.48.07.13.19.62.42.62.56,0,.72-.15,1-.4.04-.03.24-.28.27-.32.13-.2-.04-.14,0-.39.01-.09.13-.13.13-.22,0-.03.15-.08-.05-.08Z"/>
    <path class="cls-1" d="m91.53,23.37c0-.09,0-.17-.03-.26,0-.02-.01-.03-.02-.05,0-.02,0-.03,0-.05,0-.03-.02-.06-.03-.09-.02-.03-.04-.06-.06-.09-.01-.03,0-.07-.03-.1,0,0-.02-.01-.03-.02-.01-.01-.01-.03-.02-.04-.01-.02-.04-.03-.06-.05,0,0-.01-.02-.02-.03,0-.01-.02-.02-.03-.03-.04-.03-.09-.07-.14-.08-.13-.03-.25-.08-.38-.1-.08-.02-.15-.02-.23-.03-.02,0-.03,0-.05,0-.01,0-.03,0-.04,0,0,0,0,0-.01,0-.02,0-.04,0-.06,0,0,0-.01,0-.02,0-.03,0-.06,0-.09,0-.1.02-.2.05-.3.06-.02,0-.03,0-.05.01-.03,0-.06.01-.1.02,0,0,0,0-.01,0-.17.03-.32.05-.44.06-.1-.01-.38,0-.4,0-.3-.05-.4-.07-.82-.05-.05,0-.11,0-.16,0-.01,0-.03,0-.04,0-.18.03-.32.16-.49.22-.11.04-.25.03-.37.03-.13,0-.26-.03-.38-.05-.03,0-.06,0-.09,0-.14-.01-.33-.04-.48-.03-.07,0-.28.02-.33.04-.07.02-.16.01-.15.13.06.2.15.38.28.55.04.05.08.1.12.14.16.15.39.21.59.16,0,0-.02,0-.02,0,0,0,0,0,0,0h.04s0,0,0,0c.32-.05.73-.51,1.09-.42.04,0,.07.02.11.02.22.04.45.08.68.07.01,0,.02,0,.04,0,.01-.02.03-.03.05-.04.08-.04.15-.13.22-.17.01-.02.03-.04.04-.06.05-.06.1-.11.15-.17.03-.03.06-.07.1-.09.05-.04.11-.08.16-.1.03-.01.07-.02.1-.02.01,0,.09.01.09,0,.09.02.17.05.25.1.09.06.16.15.26.2.02.01.04.02.06.04-.05.02-.11.04-.17.02-.06-.01-.16-.05-.18.04-.01.08.3.21.36.26.01,0,.02,0,.03.01.09.03.16.09.22.16.09.07.19.12.29.14.17.03.28.18.44.22.08.03.16,0,.23-.02.14-.02.19-.18.32-.23.04-.08.05-.17.03-.26Z"/>
    <g>
      <path class="cls-1" d="m83.69,40.24v-11.01h1.57v1.57h1.57v1.57h-1.57v7.86h-1.57Zm3.15-6.29v-1.57h1.57v1.57h-1.57Zm3.15,6.29v-7.86h-1.57v-1.57h1.57v-1.57h1.57v11.01h-1.57Z"/>
      <path class="cls-1" d="m92.88,30.81v-1.57h1.57v1.57h-1.57Zm0,9.44v-7.86h1.57v7.86h-1.57Z"/>
      <path class="cls-1" d="m95.77,40.24v-7.86h6.29v1.57h-4.72v6.29h-1.57Zm6.29,0v-6.29h1.57v6.29h-1.57Z"/>
      <path class="cls-1" d="m104.96,38.67v-4.72h1.57v1.57h4.72v-1.57h1.57v3.15h-6.29v1.57h-1.57Zm1.57-4.72v-1.57h4.72v1.57h-4.72Zm0,6.29v-1.57h6.29v1.57h-6.29Z"/>
      <path class="cls-1" d="m114.14,38.67v-4.72h1.57v4.72h-1.57Zm1.57-4.72v-1.57h4.72v1.57h-4.72Zm0,6.29v-1.57h4.72v1.57h-4.72Zm4.72-4.72v-1.57h1.57v1.57h-1.57Zm0,3.15v-1.57h1.57v1.57h-1.57Z"/>
      <path class="cls-1" d="m123.33,40.24v-7.86h1.57v1.57h1.57v1.57h-1.57v4.72h-1.57Zm3.15-6.29v-1.57h3.15v1.57h-3.15Zm3.15,1.57v-1.57h1.57v1.57h-1.57Z"/>
      <path class="cls-1" d="m132.51,38.67v-1.57h1.57v1.57h-1.57Zm1.57-4.72v-1.57h4.72v1.57h-4.72Zm0,6.29v-1.57h4.72v-1.57h-4.72v-1.57h4.72v-1.57h1.57v6.29h-6.29Z"/>
      <path class="cls-1" d="m143.27,40.24v-6.29h-1.57v-1.57h1.57v-1.57h1.57v1.57h3.15v1.57h-3.15v6.29h-1.57Zm1.57-9.44v-1.57h3.15v1.57h-3.15Z"/>
      <path class="cls-1" d="m150.88,38.67v-4.72h-1.57v-1.57h1.57v-3.15h1.57v3.15h1.57v1.57h-1.57v4.72h-1.57Zm1.57,1.57v-1.57h1.57v1.57h-1.57Z"/>
      <path class="cls-1" d="m156.14,34.74h-.79v-.79h.79v.79Zm5.5,3.15v3.15h-.79v.79h-.79v-.79h.79v-3.15h-5.5v-.79h5.5v-.79h1.57v.79h4.72v.79h-5.5Zm-5.5-4.72v-.79h7.08v-.79h.79v.79h3.15v1.57h-.79v.79h-.79v-.79h.79v-.79h-9.44v.79h-.79v-.79Zm.79-3.15v-.79h.79v.79h-.79Zm.79,0h.79v1.57h-.79v-1.57Zm5.5,5.5v.79h-.79v-.79h-4.72v-.79h6.29v.79h-.79Zm-3.93,5.5v-.79h.79v.79h-.79Zm.79-11.01v-.79h.79v.79h-.79Zm.79,0h.79v1.57h-.79v-1.57Zm3.15.79h.79v.79h-.79v-.79Zm.79-.79v-.79h.79v1.57h-.79v-.79Z"/>
      <path class="cls-1" d="m167.68,41.03v-.79h5.5v-3.15h-3.93v-.79h3.93v-3.15h-3.15v.79h-.79v.79h-.79v.79h-.79v-.79h.79v-.79h.79v-1.57h.79v-2.36h.79v2.36h2.36v-3.15h.79v3.15h4.72v.79h-4.72v3.15h3.93v.79h-3.93v3.15h5.5v.79h-11.8Z"/>
      <path class="cls-1" d="m181.59,40.24v-10.22h9.44v11.01h-.79v.79h-.79v-.79h.79v-10.22h-7.86v11.01h-.79v-1.57Zm1.57-7.08v-.79h6.29v.79h-6.29Zm1.57,6.29h-.79v-4.72h4.72v4.72h-.79v-.79h-3.15v.79Zm3.15-1.57v-2.36h-3.15v2.36h3.15Zm.79,3.15v-.79h.79v.79h-.79Z"/>
      <path class="cls-1" d="m193.92,35.52v-2.36h-1.57v-.79h2.36v-3.15h.79v3.15h1.57v3.93h-.79v-3.15h-1.57v3.15h-.79v-.79Zm-.79,5.5h-.79v-.79h.79v.79Zm0-3.93v-.79h.79v.79h-.79Zm0,2.36h.79v.79h-.79v-.79Zm.79-1.57v-.79h.79v.79h-.79Zm0,.79h.79v.79h-.79v-.79Zm.79-.79h.79v.79h-.79v-.79Zm.79-.79v-.79h.79v1.57h-.79v-.79Zm0,2.36v-.79h.79v.79h-.79Zm.79,0h.79v1.57h-.79v-1.57Zm4.72-3.93v5.5h-.79v.79h-.79v-.79h.79v-5.5h-2.36v-.79h2.36v-1.57h.79v1.57h3.15v.79h-3.15Zm1.57-4.72h-3.93v-.79h4.72v1.57h-.79v-.79Zm-3.93,10.22v-.79h.79v.79h-.79Zm2.36-8.65h.79v.79h-.79v-.79Zm.79-.79h.79v.79h-.79v-.79Z"/>
      <path class="cls-1" d="m210.97,33.95v.79h-.79v.79h3.93v6.29h-.79v-.79h-4.72v.79h-.79v-4.72h-.79v.79h-.79v.79h-.79v.79h-.79v-.79h.79v-.79h.79v-.79h.79v-.79h.79v-.79h1.57v-.79h.79v-.79h-5.5v-.79h4.72v-1.57h-3.15v-.79h3.15v-1.57h.79v1.57h2.36v.79h.79v.79h-.79v-.79h-2.36v1.57h1.57v-.79h.79v.79h3.93v.79h-5.5Zm2.36,3.93v-1.57h-4.72v1.57h4.72Zm0,2.36v-1.57h-4.72v1.57h4.72Zm.79-9.44v.79h-.79v-.79h.79v-.79h.79v.79h-.79Z"/>
      <path class="cls-1" d="m219.37,33.17v8.65h-.79v-8.65h-1.57v-.79h1.57v-3.15h.79v3.15h1.57v.79h-1.57Zm1.57,4.72h-.79v-.79h.79v.79Zm0-1.57h.79v.79h-.79v-.79Zm.79,5.5h-.79v-.79h.79v.79Zm3.93-1.57v-7.08h-1.57v5.5h-.79v1.57h-.79v-1.57h.79v-5.5h-1.57v-.79h1.57v-3.15h.79v3.15h2.36v2.36h.79v.79h.79v.79h.79v1.57h-.79v-1.57h-.79v-.79h-.79v5.5h-.79v-.79Zm-3.93-4.72v-.79h.79v1.57h-.79v-.79Zm0,4.72h.79v.79h-.79v-.79Zm2.36.79v-.79h.79v.79h-.79Zm1.57,0v.79h-.79v-.79h.79Z"/>
      <path class="cls-1" d="m230.91,34.74h-1.57v-.79h1.57v.79Zm3.93,2.36v.79h-.79v.79h-.79v.79h-.79v.79h5.5v-.79h.79v.79h.79v1.57h-.79v-.79h-6.29v.79h-.79v-.79h-.79v-.79h.79v-.79h.79v-.79h.79v-.79h.79v-.79h-3.93v-.79h10.22v.79h-5.5Zm-3.93-3.93h1.57v.79h5.5v.79h-5.5v-.79h-1.57v-.79Zm1.57-.79h.79v.79h-.79v-.79Zm.79-.79h.79v.79h-.79v-.79Zm.79-.79h.79v.79h-.79v-.79Zm.79-.79v-.79h.79v1.57h-.79v-.79Zm.79,1.57v-.79h.79v.79h-.79Zm.79.79v-.79h.79v.79h-.79Zm.79.79v-.79h.79v.79h-.79Zm0,6.29v-.79h.79v.79h-.79Zm.79-6.29h1.57v.79h-1.57v-.79Zm1.57,1.57v-.79h1.57v.79h-1.57Z"/>
    </g>
    <g>
      <path class="cls-1" d="m83.2,47.87v-.9h.9v.9h-.9Zm.9.89v-.89h.9v.89h-.9Zm.9,4.48v-4.48h.9v4.48h-.9Zm.9-4.48v-.89h.9v.89h-.9Zm.9-.89v-.9h.9v.9h-.9Z"/>
      <path class="cls-1" d="m88.39,52.34v-.89h.9v.89h-.9Zm.9-2.68v-.9h2.69v.9h-2.69Zm0,3.58v-.9h2.69v-.89h-2.69v-.9h2.69v-.89h.9v3.58h-3.58Z"/>
      <path class="cls-1" d="m93.58,53.24v-4.48h3.58v.9h-2.69v3.58h-.9Zm3.58,0v-3.58h.9v3.58h-.9Z"/>
      <path class="cls-1" d="m98.77,50.55v-.89h.9v.89h-.9Zm0,2.69v-.9h3.58v.9h-3.58Zm.9-3.58v-.9h3.58v.9h-3.58Zm0,1.79v-.9h2.69v.9h-2.69Zm2.69.89v-.89h.9v.89h-.9Z"/>
      <path class="cls-1" d="m103.96,53.24v-6.27h.9v2.69h.9v.89h-.9v2.69h-.9Zm1.79-3.58v-.9h1.79v.9h-1.79Zm1.79,3.58v-3.58h.9v3.58h-.9Z"/>
      <path class="cls-1" d="m109.16,52.34v-.89h.9v.89h-.9Zm.9-2.68v-.9h2.69v.9h-2.69Zm0,3.58v-.9h2.69v-.89h-2.69v-.9h2.69v-.89h.9v3.58h-3.58Z"/>
      <path class="cls-1" d="m114.35,53.24v-4.48h3.58v.9h-2.69v3.58h-.9Zm3.58,0v-3.58h.9v3.58h-.9Z"/>
      <path class="cls-1" d="m121.15,52.34v-5.37h.9v5.37h-.9Zm.9.9v-.9h2.68v.9h-2.68Zm2.68-.9v-5.37h.9v5.37h-.9Z"/>
      <path class="cls-1" d="m126.34,53.24v-4.48h3.58v.9h-2.68v3.58h-.9Zm3.58,0v-3.58h.9v3.58h-.9Z"/>
      <path class="cls-1" d="m131.53,47.87v-.9h.9v.9h-.9Zm0,5.37v-4.48h.9v4.48h-.9Z"/>
      <path class="cls-1" d="m133.14,51.45v-2.69h.9v2.69h-.9Zm.9.89v-.89h.89v.89h-.89Zm.89.9v-.9h.9v.9h-.9Zm.9-.9v-.89h.89v.89h-.89Zm.89-.89v-2.69h.9v2.69h-.9Z"/>
      <path class="cls-1" d="m138.33,52.34v-2.68h.9v.89h2.68v-.89h.9v1.79h-3.58v.89h-.9Zm.9-2.68v-.9h2.68v.9h-2.68Zm0,3.58v-.9h3.58v.9h-3.58Z"/>
      <path class="cls-1" d="m143.52,53.24v-4.48h.9v.9h.89v.89h-.89v2.69h-.9Zm1.79-3.58v-.9h1.79v.9h-1.79Zm1.79.89v-.89h.9v.89h-.9Z"/>
      <path class="cls-1" d="m148.71,50.55v-.89h.9v.89h-.9Zm0,2.69v-.9h3.58v.9h-3.58Zm.9-3.58v-.9h3.58v.9h-3.58Zm0,1.79v-.9h2.68v.9h-2.68Zm2.68.89v-.89h.9v.89h-.9Z"/>
      <path class="cls-1" d="m153.91,47.87v-.9h.9v.9h-.9Zm0,5.37v-4.48h.9v4.48h-.9Z"/>
      <path class="cls-1" d="m156.41,52.34v-2.68h-.9v-.9h.9v-1.79h.89v1.79h.9v.9h-.9v2.68h-.89Zm.89.9v-.9h.9v.9h-.9Z"/>
      <path class="cls-1" d="m158.92,51.45v-2.69h.9v2.69h-.9Zm3.58,1.79v-.9h-2.68v-.89h2.68v-2.69h.9v4.48h-.9Zm-2.68.9v-.9h2.68v.9h-2.68Z"/>
      <path class="cls-1" d="m165.72,53.24v-6.27h.9v.9h.89v.89h-.89v4.48h-.9Zm1.79-3.58v-.9h.9v.9h-.9Zm1.79,3.58v-4.48h-.89v-.89h.89v-.9h.9v6.27h-.9Z"/>
      <path class="cls-1" d="m170.91,47.87v-.9h.9v.9h-.9Zm0,5.37v-4.48h.9v4.48h-.9Z"/>
      <path class="cls-1" d="m172.52,53.24v-4.48h3.58v.9h-2.68v3.58h-.9Zm3.58,0v-3.58h.9v3.58h-.9Z"/>
      <path class="cls-1" d="m177.71,52.34v-2.68h.9v.89h2.68v-.89h.9v1.79h-3.58v.89h-.9Zm.9-2.68v-.9h2.68v.9h-2.68Zm0,3.58v-.9h3.58v.9h-3.58Z"/>
      <path class="cls-1" d="m182.91,52.34v-2.68h.9v2.68h-.9Zm.9-2.68v-.9h2.68v.9h-2.68Zm0,3.58v-.9h2.68v.9h-2.68Zm2.68-2.69v-.89h.9v.89h-.9Zm0,1.79v-.89h.9v.89h-.9Z"/>
      <path class="cls-1" d="m188.1,53.24v-4.48h.9v.9h.89v.89h-.89v2.69h-.9Zm1.79-3.58v-.9h1.79v.9h-1.79Zm1.79.89v-.89h.9v.89h-.9Z"/>
      <path class="cls-1" d="m193.29,52.34v-.89h.9v.89h-.9Zm.9-2.68v-.9h2.68v.9h-2.68Zm0,3.58v-.9h2.68v-.89h-2.68v-.9h2.68v-.89h.9v3.58h-3.58Z"/>
      <path class="cls-1" d="m199.37,53.24v-3.58h-.9v-.9h.9v-.89h.89v.89h1.79v.9h-1.79v3.58h-.89Zm.89-5.37v-.9h1.79v.9h-1.79Z"/>
      <path class="cls-1" d="m203.67,52.34v-2.68h-.9v-.9h.9v-1.79h.89v1.79h.9v.9h-.9v2.68h-.89Zm.89.9v-.9h.9v.9h-.9Z"/>
      <path class="cls-1" d="m207.79,52.34v-4.47h.9v4.47h-.9Zm.9-4.47v-.9h2.68v.9h-2.68Zm0,5.37v-.9h2.68v.9h-2.68Zm2.68-4.48v-.89h.9v.89h-.9Zm0,3.58v-.89h.9v.89h-.9Z"/>
      <path class="cls-1" d="m212.98,52.34v-5.37h.9v5.37h-.9Zm.9.9v-.9h.89v.9h-.89Z"/>
      <path class="cls-1" d="m215.49,52.34v-3.58h.9v3.58h-.9Zm.9.9v-.9h2.68v-3.58h.9v4.48h-3.58Z"/>
      <path class="cls-1" d="m220.68,53.24v-6.27h.9v2.69h.89v.89h-.89v1.79h2.68v.9h-3.58Zm1.79-3.58v-.9h1.79v.9h-1.79Zm1.79,2.68v-2.68h.9v2.68h-.9Z"/>
    </g>
  </g>
</svg>